<svg id="Layer_1" data-name="Layer 1" xmlns="http://www.w3.org/2000/svg" viewBox="0 0 782.78 310.59"><defs><style>.cls-1{fill:#f4e1be;}</style></defs><path class="cls-1" d="M50.46,230.92,36.2,222.69l1.6-2.78,14.26,8.24a3,3,0,0,1-.52,1.38A4.59,4.59,0,0,1,50.46,230.92Z" transform="translate(-29.75 -142.32)"/><path class="cls-1" d="M307,358.34v-4.57l-7.24-2.27a26.54,26.54,0,0,0-1.35-5l5.14-5.58-2.28-4-7.4,1.66a28,28,0,0,0-3.7-3.69l1.67-7.4-4-2.29-5.58,5.14a26.92,26.92,0,0,0-5-1.34L275,321.75h-2.29v13.72a20.59,20.59,0,1,1-17.76,31l-11.87,6.85,1.08,1.86,7.39-1.65a26.74,26.74,0,0,0,3.69,3.68l-1.66,7.4,4,2.29,5.57-5.13a27.7,27.7,0,0,0,5.06,1.34l2.25,7.25H275l2.27-7.25a27.71,27.71,0,0,0,5-1.34l5.58,5.13,4-2.29-1.67-7.4a27.37,27.37,0,0,0,3.7-3.68l7.4,1.65,2.28-4-5.14-5.57a26.64,26.64,0,0,0,1.35-5Z" transform="translate(-29.75 -142.32)"/><path class="cls-1" d="M272.71,340.05v7.1a9.15,9.15,0,1,1-8,13.65l-5.83,3.37a16,16,0,1,0,13.79-24.12Z" transform="translate(-29.75 -142.32)"/><path class="cls-1" d="M81.81,366.47a20.58,20.58,0,1,1-17.75-31V321.75H61.77L59.51,329a26.62,26.62,0,0,0-5,1.34l-5.57-5.14-4,2.29,1.65,7.4a27.89,27.89,0,0,0-3.68,3.69l-7.4-1.66-2.29,4,5.13,5.58a27.29,27.29,0,0,0-1.34,5l-7.25,2.27v4.57L37,360.6a27.39,27.39,0,0,0,1.34,5l-5.13,5.57,2.29,4,7.4-1.65a27.23,27.23,0,0,0,3.68,3.68l-1.65,7.4,4,2.29,5.57-5.13a27.39,27.39,0,0,0,5,1.34l2.26,7.25h4.57l2.27-7.25a27.5,27.5,0,0,0,5-1.34l5.58,5.13,4-2.29-1.66-7.4a27.3,27.3,0,0,0,3.69-3.68l7.4,1.65,1.07-1.85Z" transform="translate(-29.75 -142.32)"/><path class="cls-1" d="M72,360.8a9.14,9.14,0,1,1-8-13.65v-7.1a16,16,0,1,0,13.79,24.13Z" transform="translate(-29.75 -142.32)"/><path class="cls-1" d="M202.69,178.91v-4.58l-7.25-2.27a26.72,26.72,0,0,0-1.34-5l5.14-5.58-2.29-4-7.4,1.67a28.12,28.12,0,0,0-3.7-3.7l1.67-7.4-4-2.28L178,150.91a26,26,0,0,0-5-1.35l-2.27-7.24H166.1l-2.26,7.24a25.91,25.91,0,0,0-5.05,1.35l-5.57-5.14-4,2.28,1.65,7.4a27.37,27.37,0,0,0-3.68,3.7l-7.41-1.67-2.28,4,5.13,5.58a28.34,28.34,0,0,0-1.35,5l-7.24,2.27v4.58l7.24,2.26a28.45,28.45,0,0,0,1.35,5.05l-5.13,5.57.67,1.15,11.9-6.87a20.34,20.34,0,0,1-2.31-9.45,20.59,20.59,0,1,1,38.86,9.45l11.91,6.87.67-1.15-5.14-5.57a26.82,26.82,0,0,0,1.34-5.05Z" transform="translate(-29.75 -142.32)"/><path class="cls-1" d="M168.38,160.61a16,16,0,0,0-16,16,15.76,15.76,0,0,0,1.69,7.15l5.88-3.38a9,9,0,0,1-.71-3.53,9.15,9.15,0,1,1,17.58,3.53l5.88,3.38a15.76,15.76,0,0,0,1.69-7.15A16,16,0,0,0,168.38,160.61Z" transform="translate(-29.75 -142.32)"/><path class="cls-1" d="M233.06,379.1l-34,19.64,1.82,5.62h5.07l2.51-7.75a31.42,31.42,0,0,0,5.59-1.45l6.19,5.5,4.39-2.45-1.85-7.93a30,30,0,0,0,4.1-3.95l8.21,1.78,2.53-4.25Z" transform="translate(-29.75 -142.32)"/><path class="cls-1" d="M64,271.17l-8.21-1.79-2.53,4.25,5.68,6A28.07,28.07,0,0,0,57.5,285l-8,2.43v4.89l8,2.43A28.07,28.07,0,0,0,59,300.17l-5.68,6,2.53,4.24L64,308.61l0,0V271.15Z" transform="translate(-29.75 -142.32)"/><path class="cls-1" d="M235,168.26l.67-1.89-2.66-2a12.63,12.63,0,0,0,.18-2.29l3-1.55-.37-2-3.31-.39a12.34,12.34,0,0,0-1-2.08l1.77-2.81-1.3-1.53-3.07,1.31a11.65,11.65,0,0,0-1.88-1.3l.12-3.33-1.89-.67-2,2.66a11.85,11.85,0,0,0-2.29-.18l-1.55-2.95-2,.37L217,151a12.6,12.6,0,0,0-2.06,1l-2.82-1.77-1.53,1.3,1.3,3.06a11.88,11.88,0,0,0-1.29,1.89l-3.33-.12-.68,1.89,2.67,2a11.75,11.75,0,0,0-.18,2.28L206.15,164l.37,2,3.31.4a12.24,12.24,0,0,0,1,2.07L209,171.29l1.3,1.53,3.06-1.31a11.93,11.93,0,0,0,1.89,1.3l-.13,3.33,1.9.67,2-2.66a12.52,12.52,0,0,0,2.28.18l1.56,2.94,2-.36.4-3.31a12.24,12.24,0,0,0,2.07-1l2.82,1.77,1.53-1.3L230.38,170a12,12,0,0,0,1.3-1.9Zm-16.88,2.54a9,9,0,1,1,11.54-5.5A9,9,0,0,1,218.13,170.8Z" transform="translate(-29.75 -142.32)"/><path class="cls-1" d="M223.5,155.65a7,7,0,1,0,4.27,9A7,7,0,0,0,223.5,155.65Zm-3.73,10.51a4,4,0,1,1,5.13-2.44A4,4,0,0,1,219.77,166.16Z" transform="translate(-29.75 -142.32)"/><path class="cls-1" d="M131.45,169.86l.39-1.1-1.54-1.16a6.53,6.53,0,0,0,.1-1.32l1.71-.9-.21-1.14L130,164a7.38,7.38,0,0,0-.58-1.2l1-1.63-.75-.89-1.78.76a7,7,0,0,0-1.09-.75l.07-1.93L125.8,158l-1.16,1.55a6.54,6.54,0,0,0-1.32-.11l-.9-1.7-1.14.21-.24,1.91a6.83,6.83,0,0,0-1.19.57l-1.63-1-.89.75.76,1.77a6.46,6.46,0,0,0-.75,1.1l-1.93-.08L115,164l1.54,1.16a6.53,6.53,0,0,0-.1,1.32l-1.71.9.21,1.14,1.92.23a6.6,6.6,0,0,0,.57,1.2l-1,1.63.76.89,1.77-.76a7,7,0,0,0,1.09.75l-.07,1.93,1.09.39,1.16-1.55a6.54,6.54,0,0,0,1.32.11l.9,1.7,1.15-.21.23-1.91a7.29,7.29,0,0,0,1.2-.57l1.63,1,.88-.76-.76-1.77a6.52,6.52,0,0,0,.76-1.1Zm-9.77,1.47a5.23,5.23,0,1,1,6.68-3.18A5.23,5.23,0,0,1,121.68,171.33Z" transform="translate(-29.75 -142.32)"/><path class="cls-1" d="M124.79,162.56a4.07,4.07,0,1,0,2.47,5.2A4.06,4.06,0,0,0,124.79,162.56Zm-2.16,6.08a2.32,2.32,0,1,1,3-1.41A2.32,2.32,0,0,1,122.63,168.64Z" transform="translate(-29.75 -142.32)"/><path class="cls-1" d="M126.05,197.11l3.22-1.69-.4-2.16-3.61-.43a13,13,0,0,0-1.08-2.26l1.94-3.07-1.42-1.68-3.34,1.43a12.72,12.72,0,0,0-2.06-1.41l.13-3.64-2.06-.73-2.18,2.91a13.24,13.24,0,0,0-2.5-.2L111,181l-2.16.4L108.4,185a12.91,12.91,0,0,0-2.25,1.08l-3.07-1.94-1.67,1.42,1.42,3.35a12.73,12.73,0,0,0-1.42,2.06l-3.63-.14-.73,2.07L100,195a12.46,12.46,0,0,0-.2,2.5l-3.21,1.69.39,2.16,3.61.43a13,13,0,0,0,1.08,2.26l-1.93,3.07,1.41,1.68,3.34-1.43a13.06,13.06,0,0,0,2.07,1.42l-.1,2.47,7.14-4.13a9.67,9.67,0,0,1-4-.54,9.86,9.86,0,1,1,12.59-6,9.66,9.66,0,0,1-1.11,2.2l5.11-3-.34-.25A13.29,13.29,0,0,0,126.05,197.11Z" transform="translate(-29.75 -142.32)"/><path class="cls-1" d="M115.47,190.09a7.68,7.68,0,1,0,4.66,9.8A7.68,7.68,0,0,0,115.47,190.09ZM117,198.9a4.38,4.38,0,1,1-2.66-5.6A4.37,4.37,0,0,1,117,198.9Z" transform="translate(-29.75 -142.32)"/><path class="cls-1" d="M246.39,207.25l.41-2.78-4.2-2a15.79,15.79,0,0,0-.38-3.19l3.63-2.94-1-2.61-4.66.34a16.25,16.25,0,0,0-1.91-2.58l1.67-4.35-2.21-1.75L233.85,188a16.72,16.72,0,0,0-2.95-1.27l-.73-4.61-2.79-.41-2,4.21a15.61,15.61,0,0,0-3.18.38l-3-3.64-2.61,1,.35,4.65a15.78,15.78,0,0,0-2.57,1.92L210,188.63l-1.75,2.2,2.64,3.86a16.72,16.72,0,0,0-1.27,2.95l-2.33.37,5.82,3.35A12.65,12.65,0,1,1,233.27,213l4.65,2.7,3.49,1.33,1.74-2.21-2.63-3.85a17.39,17.39,0,0,0,1.27-2.94Z" transform="translate(-29.75 -142.32)"/><path class="cls-1" d="M234.88,199.18a9.85,9.85,0,0,0-19,3.75l5.09,2.94a6,6,0,0,1-.42-.84,5.63,5.63,0,1,1,7.31,3.15,5.31,5.31,0,0,1-2.2.39l4.88,2.83A9.86,9.86,0,0,0,234.88,199.18Z" transform="translate(-29.75 -142.32)"/><path class="cls-1" d="M127.16,392.65l-4.3-2.49a9.53,9.53,0,1,1-16.3-9.41l-4.31-2.48-1.54-.35-1.06,1.84,2.38,2.58a11.52,11.52,0,0,0-.62,2.34l-3.36,1v2.12l3.36,1.06a11.6,11.6,0,0,0,.62,2.33l-2.38,2.58,1.06,1.84,3.43-.77a12.49,12.49,0,0,0,1.7,1.71l-.77,3.43,1.84,1.05,2.58-2.37a12.21,12.21,0,0,0,2.34.62l1,3.36H115l1-3.36a12.11,12.11,0,0,0,2.33-.62l2.59,2.37L122.8,400l-.77-3.43a12,12,0,0,0,1.71-1.71l3.43.77,1.06-1.84Z" transform="translate(-29.75 -142.32)"/><path class="cls-1" d="M118.14,387.44a4.24,4.24,0,1,1-6.77-3.91l-3-1.71A7.42,7.42,0,1,0,121,389.09Z" transform="translate(-29.75 -142.32)"/><path class="cls-1" d="M95.1,398l-.35-1.37-2.34-.13a8.8,8.8,0,0,0-.79-1.41L92.74,393l-1-1-2.09,1.06a9.22,9.22,0,0,0-1.39-.82l-.07-2.35-1.36-.38-1.28,2a7.87,7.87,0,0,0-1.61,0l-1.24-2-1.37.35-.12,2.34a7.83,7.83,0,0,0-1.42.79l-2.06-1.12-1,1,1.06,2.09a8.45,8.45,0,0,0-.82,1.39l-2.35.07-.38,1.36,2,1.28a8.65,8.65,0,0,0,0,1.61l-2,1.24.35,1.37,2.35.12a8.76,8.76,0,0,0,.78,1.41l-1.11,2.07,1,1,2.09-1.06a8.06,8.06,0,0,0,1.39.82l.06,2.35,1.37.38,1.27-2a8.77,8.77,0,0,0,1.62,0l1.23,2,1.37-.35.13-2.35a8.76,8.76,0,0,0,1.41-.78L91.54,408l1-1-1.07-2.09a8.11,8.11,0,0,0,.83-1.39l2.35-.06.38-1.37-2-1.28a7.87,7.87,0,0,0,0-1.61Zm-8.89,8.1a6.37,6.37,0,1,1,4.6-7.74A6.37,6.37,0,0,1,86.21,406.09Z" transform="translate(-29.75 -142.32)"/><path class="cls-1" d="M83.42,395.12a5,5,0,1,0,6,3.58A5,5,0,0,0,83.42,395.12Zm1.94,7.61a2.83,2.83,0,1,1,2-3.44A2.82,2.82,0,0,1,85.36,402.73Z" transform="translate(-29.75 -142.32)"/><path class="cls-1" d="M296.86,303.17v-2.33l-3.7-1.15a13,13,0,0,0-.68-2.57l2.62-2.85-1.17-2-3.77.84a15.1,15.1,0,0,0-1.88-1.87l.85-3.77-2-1.17-2.85,2.62a12.31,12.31,0,0,0-2.57-.68l-1.15-3.7h-2.33l-1.16,3.7a12.65,12.65,0,0,0-2.57.68l-1.78-1.65v6.67a10.37,10.37,0,0,1,6.68-2.41,10.49,10.49,0,0,1,0,21,10.37,10.37,0,0,1-6.68-2.41v6.67l1.78-1.65a14.12,14.12,0,0,0,2.57.69l1.16,3.69h2.33l1.15-3.69a13.7,13.7,0,0,0,2.57-.69l2.85,2.62,2-1.17-.85-3.77a13.36,13.36,0,0,0,1.88-1.88l3.77.85,1.17-2-2.62-2.83a13.24,13.24,0,0,0,.68-2.58Z" transform="translate(-29.75 -142.32)"/><path class="cls-1" d="M279.39,293.85a8.18,8.18,0,0,0-6.68,3.47v9.38a8.16,8.16,0,1,0,6.68-12.85Zm0,12.94a4.66,4.66,0,1,1,4.65-4.67A4.67,4.67,0,0,1,279.39,306.79Z" transform="translate(-29.75 -142.32)"/><path class="cls-1" d="M266.63,407.87l.33-2.3-3.49-1.67a14.43,14.43,0,0,0-.31-2.64l3-2.44-.87-2.16-3.85.3a13.79,13.79,0,0,0-1.6-2.13l1.38-3.61-1.83-1.44L256.19,392a13.88,13.88,0,0,0-2.44-1l-.62-3.81-2.31-.33-1.66,3.49a13,13,0,0,0-2.65.31l-2.43-3-2.17.87.31,3.85a14.46,14.46,0,0,0-2.13,1.6l-3.61-1.37L235,394.37l2.19,3.18a14.46,14.46,0,0,0-1,2.45l-3.81.62-.33,2.3,3.49,1.67a13.61,13.61,0,0,0,.31,2.64l-3,2.44.87,2.16,3.85-.3a13.18,13.18,0,0,0,1.59,2.12l-1.37,3.62,1.84,1.43,3.18-2.18a13.57,13.57,0,0,0,2.44,1l.62,3.82,2.31.33,1.66-3.49a14.43,14.43,0,0,0,2.64-.32l2.44,3,2.17-.86-.31-3.86a13.72,13.72,0,0,0,2.13-1.59l3.61,1.37,1.44-1.83-2.19-3.18a13.66,13.66,0,0,0,1-2.45ZM248,414.62a10.48,10.48,0,1,1,11.87-8.89A10.48,10.48,0,0,1,248,414.62Z" transform="translate(-29.75 -142.32)"/><path class="cls-1" d="M250.65,396.17a8.16,8.16,0,1,0,6.92,9.23A8.16,8.16,0,0,0,250.65,396.17ZM248.82,409a4.66,4.66,0,1,1,5.27-4A4.66,4.66,0,0,1,248.82,409Z" transform="translate(-29.75 -142.32)"/><path class="cls-1" d="M310.59,323.6l.17-1.18-1.78-.85a6.63,6.63,0,0,0-.16-1.34l1.52-1.24-.44-1.11-2,.16a7.9,7.9,0,0,0-.81-1.09l.7-1.83-.94-.74-1.62,1.12A6.17,6.17,0,0,0,304,315l-.32-2-1.17-.16-.85,1.77a7.55,7.55,0,0,0-1.35.16l-1.24-1.52-1.1.44.15,2a8.45,8.45,0,0,0-1.08.81l-1.84-.69-.73.93,1.11,1.62a7.58,7.58,0,0,0-.53,1.24l-1.94.32-.17,1.18,1.78.84a6.73,6.73,0,0,0,.16,1.35l-1.52,1.24.44,1.1,2-.15a6.48,6.48,0,0,0,.81,1.08l-.7,1.84.94.73,1.61-1.11a7.69,7.69,0,0,0,1.25.53l.32,1.94,1.17.17.85-1.78a6.55,6.55,0,0,0,1.34-.16l1.25,1.53,1.1-.44-.16-2a6.55,6.55,0,0,0,1.09-.81l1.84.7.73-.93-1.12-1.62a6.94,6.94,0,0,0,.54-1.25ZM301.11,327a5.34,5.34,0,1,1,6-4.52A5.33,5.33,0,0,1,301.11,327Z" transform="translate(-29.75 -142.32)"/><path class="cls-1" d="M302.45,317.64a4.15,4.15,0,1,0,3.52,4.7A4.15,4.15,0,0,0,302.45,317.64Zm-.93,6.52a2.37,2.37,0,1,1,2.68-2A2.37,2.37,0,0,1,301.52,324.16Z" transform="translate(-29.75 -142.32)"/><path class="cls-1" d="M186.45,375a3.15,3.15,0,0,1-1.6-.43,3.2,3.2,0,0,1-1.6-2.77v-66a3.2,3.2,0,0,1,1.6-2.77l11.43-6.6a3.2,3.2,0,0,1,4.8,2.78v66a3.22,3.22,0,0,1-1.6,2.78l-11.43,6.59A3.18,3.18,0,0,1,186.45,375Zm3.2-64.1v52.82a1.47,1.47,0,0,0,2.2,1.27h0a5.67,5.67,0,0,0,2.83-4.91V307.27a1.46,1.46,0,0,0-2.2-1.27h0A5.66,5.66,0,0,0,189.65,310.9Z" transform="translate(-29.75 -142.32)"/><path class="cls-1" d="M209.32,361.8a3.12,3.12,0,0,1-1.6-.43,3.2,3.2,0,0,1-1.6-2.77v-66a3.2,3.2,0,0,1,1.6-2.77l11.43-6.61A3.2,3.2,0,0,1,224,286v66a3.22,3.22,0,0,1-1.6,2.78l-11.43,6.6A3.18,3.18,0,0,1,209.32,361.8Zm3.2-64.1v52.81a1.46,1.46,0,0,0,2.2,1.27h0a5.66,5.66,0,0,0,2.83-4.9V294.06a1.47,1.47,0,0,0-2.2-1.27h0A5.68,5.68,0,0,0,212.52,297.7Z" transform="translate(-29.75 -142.32)"/><path class="cls-1" d="M232.19,348.6a3.12,3.12,0,0,1-1.6-.43A3.19,3.19,0,0,1,229,345.4v-66a3.2,3.2,0,0,1,1.6-2.77L242,270a3.2,3.2,0,0,1,4.8,2.78v66a3.22,3.22,0,0,1-1.6,2.78l-11.43,6.6A3.18,3.18,0,0,1,232.19,348.6Zm3.2-64.1v52.81a1.46,1.46,0,0,0,2.2,1.27h0a5.66,5.66,0,0,0,2.83-4.9V280.86a1.47,1.47,0,0,0-2.2-1.27h0A5.69,5.69,0,0,0,235.39,284.5Z" transform="translate(-29.75 -142.32)"/><path class="cls-1" d="M169.12,278.6a3.12,3.12,0,0,1-1.6-.43l-11.44-6.6a3.22,3.22,0,0,1-1.6-2.78v-16.6h-31.1a3.2,3.2,0,0,1-1.6-.43l-11.44-6.6a3.2,3.2,0,0,1,0-5.55L121.78,233a3.22,3.22,0,0,1,1.6-.43h31.1V216a3.2,3.2,0,0,1,1.6-2.77l11.44-6.6a3.21,3.21,0,0,1,3.2,0l11.43,6.6a3.2,3.2,0,0,1,1.6,2.77v16.61h31.1a3.17,3.17,0,0,1,1.6.43l11.44,6.59a3.21,3.21,0,0,1,0,5.55l-11.44,6.6a3.17,3.17,0,0,1-1.6.43h-31.1v16.6a3.22,3.22,0,0,1-1.6,2.78l-11.43,6.6A3.18,3.18,0,0,1,169.12,278.6ZM160.88,267l8.24,4.75,8.23-4.75V249a3.2,3.2,0,0,1,3.2-3.2h32.53a3.36,3.36,0,0,0,1.7-.46h0a3.4,3.4,0,0,0,0-5.89h0a3.45,3.45,0,0,0-1.69-.45H180.55a3.2,3.2,0,0,1-3.2-3.2v-18l-8.23-4.75-8.24,4.75v18a3.2,3.2,0,0,1-3.2,3.2H125.15a3.45,3.45,0,0,0-1.7.45h0a3.4,3.4,0,0,0,0,5.89h0a3.39,3.39,0,0,0,1.7.46h32.53a3.2,3.2,0,0,1,3.2,3.2Z" transform="translate(-29.75 -142.32)"/><path class="cls-1" d="M152,375a3.15,3.15,0,0,1-1.6-.43L139,368a3.31,3.31,0,0,1-1.17-1.18l-15.55-26.93-14.38,8.3a3.21,3.21,0,0,1-3.2,0l-11.44-6.6a3.22,3.22,0,0,1-1.6-2.78V325.58a3.19,3.19,0,0,1,1.61-2.77l14.37-8.29L92.07,287.58a3.22,3.22,0,0,1-.43-1.6v-13.2A3.21,3.21,0,0,1,96.45,270l11.43,6.61a3.13,3.13,0,0,1,1.17,1.17l15.55,26.93,14.38-8.3a3.21,3.21,0,0,1,3.2,0l11.44,6.6a3.2,3.2,0,0,1,1.6,2.77V319a3.2,3.2,0,0,1-1.6,2.77l-11.44,6.61h0l-2.94,1.69L154.79,357a3.2,3.2,0,0,1,.43,1.6v13.2A3.2,3.2,0,0,1,152,375Zm-8.3-11.69h0a3.4,3.4,0,0,0,5.1-2.95h0a3.36,3.36,0,0,0-.46-1.7l-16.27-28.18a3.2,3.2,0,0,1,1.18-4.38l15.55-9v-9.51l-8.24-4.75-15.55,9a3.2,3.2,0,0,1-4.37-1.18l-16.27-28.17a3.51,3.51,0,0,0-1.24-1.24h0a3.39,3.39,0,0,0-5.09,2.94h0a3.41,3.41,0,0,0,.45,1.7l16.27,28.18a3.2,3.2,0,0,1-1.17,4.37l-15.55,9V337l8.23,4.75,15.55-9a3.2,3.2,0,0,1,4.37,1.17l16.27,28.18A3.31,3.31,0,0,0,143.72,363.31Z" transform="translate(-29.75 -142.32)"/><path class="cls-1" d="M160.28,192.7,85.23,236A22.49,22.49,0,0,0,74,255.51v86.67a17.66,17.66,0,0,0,8.84,15.3l75.05,43.34a22.53,22.53,0,0,0,22.49,0l75.06-43.34a17.67,17.67,0,0,0,8.83-15.3V255.51A22.5,22.5,0,0,0,253,236L178,192.7A17.7,17.7,0,0,0,160.28,192.7Zm86.92,55.45L175,289.84a11.74,11.74,0,0,1-11.75,0L91,248.15a4,4,0,0,1,0-7l69.25-40a17.7,17.7,0,0,1,17.67,0l69.25,40A4,4,0,0,1,247.2,248.15ZM87.38,254.49l72.2,41.69a11.73,11.73,0,0,1,5.88,10.17v83.38a4.05,4.05,0,0,1-6.08,3.51l-69.25-40A17.68,17.68,0,0,1,81.3,338V258A4.05,4.05,0,0,1,87.38,254.49Zm85.4,135.24V306.35a11.73,11.73,0,0,1,5.87-10.17l72.21-41.69a4,4,0,0,1,6.07,3.51v80a17.66,17.66,0,0,1-8.83,15.3l-69.25,40A4,4,0,0,1,172.78,389.73Z" transform="translate(-29.75 -142.32)"/><path class="cls-1" d="M159.55,419.71a1.92,1.92,0,0,0,.34-1.87c-.14-.42-1.43-3.26-1.74-3.75a10.68,10.68,0,0,0-9.15-4.78c-3.9,0-7.5,1.85-10.48,4.25-1.37,1.1-3.24,2.5-4.08,4.08-1.07,2,.47,3.46,2,4.56a17.35,17.35,0,0,0,11.84,3.27A17.74,17.74,0,0,0,159.55,419.71Z" transform="translate(-29.75 -142.32)"/><path class="cls-1" d="M165.62,421.24c-4.36.91-7.55,4.32-9.2,8.34-1.92,4.67-1.6,10-.23,14.76a37.66,37.66,0,0,0,2.9,7.23c.55,1,1.22,1.67,2.4,1.16a16.28,16.28,0,0,0,3.37-2.14,22.59,22.59,0,0,0,8-12.57,24.5,24.5,0,0,0-2.13-17C170.46,420.47,165.9,421.19,165.62,421.24Z" transform="translate(-29.75 -142.32)"/><path class="cls-1" d="M178.06,407.79c-1,.15-2.32,5.31-2.41,5.8a13.32,13.32,0,0,0,4.53,12.3c4.15,3.72,9.86,4.91,15.29,5,1.4,0,2.81,0,4.21-.13s3.14,0,4.37-.64c2.27-1.13,1.13-4.74.59-6.58a21.85,21.85,0,0,0-8.37-11.64A25.49,25.49,0,0,0,178.06,407.79Z" transform="translate(-29.75 -142.32)"/><path class="cls-1" d="M280.3,242.63a1.93,1.93,0,0,0-1.79.63c-.29.34-2.11,2.88-2.38,3.39a10.71,10.71,0,0,0,.44,10.31c1.92,3.4,5.35,5.58,8.92,7,1.64.64,3.78,1.56,5.57,1.5,2.27-.08,2.76-2.14,3-4a17.42,17.42,0,0,0-3.09-11.9A17.71,17.71,0,0,0,280.3,242.63Z" transform="translate(-29.75 -142.32)"/><path class="cls-1" d="M278.59,236.6c3,3.33,7.52,4.39,11.82,3.81,5-.68,9.45-3.62,12.9-7.19a37,37,0,0,0,4.81-6.13c.62-1,.84-1.89-.2-2.66a16.22,16.22,0,0,0-3.53-1.84,22.65,22.65,0,0,0-14.89-.66,24.56,24.56,0,0,0-13.66,10.35C275.51,232.8,278.4,236.39,278.59,236.6Z" transform="translate(-29.75 -142.32)"/><path class="cls-1" d="M260.72,232.56c.64.81,5.76-.65,6.23-.82a13.3,13.3,0,0,0,8.39-10.07c1.14-5.45-.68-11-3.32-15.74q-1-1.83-2.22-3.57c-.76-1.11-1.6-2.71-2.74-3.47-2.12-1.4-4.67,1.39-6,2.77a21.82,21.82,0,0,0-5.9,13.08A25.5,25.5,0,0,0,260.72,232.56Z" transform="translate(-29.75 -142.32)"/><path class="cls-1" d="M52.72,252.35a21.84,21.84,0,0,1-10.94-2.94,1.37,1.37,0,0,1,.39-2.53A27.32,27.32,0,0,0,59,235c6.06-9.8,3.31-20,2.7-22a1.37,1.37,0,0,1,2-1.6,22,22,0,0,1-11,41Zm-3.6-5a1.07,1.07,0,0,0,.26,2A19.22,19.22,0,0,0,67.46,218a1.07,1.07,0,0,0-1.87.79A28.78,28.78,0,0,1,49.12,247.3Z" transform="translate(-29.75 -142.32)"/><circle class="cls-1" cx="7.25" cy="78.98" r="4.57"/><path class="cls-1" d="M60,214.48A24.32,24.32,0,0,1,57.56,234a24.18,24.18,0,0,1-15,10.6s8.55-10.16,10.76-14S60,214.48,60,214.48Z" transform="translate(-29.75 -142.32)"/><path class="cls-1" d="M420.23,279.82v12.7c0,.87,0,1.76,0,2.65-4.89-11.87-14.78-12.26-19.69-23.15l4.56-10.15C409.07,269.48,414.87,274.35,420.23,279.82Z" transform="translate(-29.75 -142.32)"/><path class="cls-1" d="M740.66,304.06c-.1,1.89-.28,3.79-.57,5.67-6.94-5-24-5.85-31.84-1.55-.2-1.41-.31-2.85-.37-4.27,0-.52,0-1-.07-1.53C718,300.66,730.58,300.89,740.66,304.06Z" transform="translate(-29.75 -142.32)"/><path class="cls-1" d="M423.53,250.69a44.13,44.13,0,0,0,10.61-.4c0-1.23.08-2.47.13-3.7a61.28,61.28,0,0,1,1.6-11.39H421.78a61.28,61.28,0,0,1,1.6,11.39C423.45,248,423.49,249.32,423.53,250.69ZM434,292.52V266.69a67.51,67.51,0,0,1-8.67.56c-.57,0-1.14,0-1.7,0v25.3c0,3.88-.08,7.74-.26,11.62a61.27,61.27,0,0,1-1.6,11.4h14.09a61.27,61.27,0,0,1-1.6-11.4C434.09,300.26,434,296.4,434,292.52Z" transform="translate(-29.75 -142.32)"/><path class="cls-1" d="M743.79,275.67l0,0c.34,0,.68,0,1,0C744.47,275.7,744.13,275.7,743.79,275.67Zm11.15,28.47c-.16-3.88-.26-7.74-.26-11.62V282.46a18.2,18.2,0,0,0-1.86.4,29.79,29.79,0,0,1-8.49.94v8.72c0,3.88-.1,7.74-.26,11.62a59.67,59.67,0,0,1-1.62,11.4h14.11A59.67,59.67,0,0,1,754.94,304.14Zm14.15-68.94c-.68,1.58-1.48,3.25-2.37,5s-2.05,3.72-3.43,6-3.15,5-5.28,8.24l-8.19,12.23-8.61-12.35q-4.79-7.14-7.42-11.4a57.18,57.18,0,0,1-4.09-7.66H714.15a97.36,97.36,0,0,1,7.15,8q3.33,4.14,6.32,8.59l10,14.84a29.82,29.82,0,0,0,11.91.74,61.16,61.16,0,0,1,12.2-.91l9.93-14.67c2.07-2.89,4.2-5.73,6.37-8.49a102.52,102.52,0,0,1,7.11-8.08Z" transform="translate(-29.75 -142.32)"/><path class="cls-1" d="M624.41,273.23a74.21,74.21,0,0,1-11.27,5.36A38.76,38.76,0,0,1,611.2,288a32.81,32.81,0,0,1-6,10.68,29.59,29.59,0,0,1-9.44,7.31,27.38,27.38,0,0,1-12.24,2.69A27.08,27.08,0,0,1,571.32,306a28.3,28.3,0,0,1-9.27-7.31A33.72,33.72,0,0,1,556.14,288a2.92,2.92,0,0,1-.13-.42,47,47,0,0,0-9.94,4.54A40.22,40.22,0,0,0,554.33,305a38,38,0,0,0,12.91,8.87,43.9,43.9,0,0,0,32.76,0A38.62,38.62,0,0,0,613,305a40.4,40.4,0,0,0,8.5-13.26,44,44,0,0,0,3-16.39C624.46,274.62,624.45,273.92,624.41,273.23Zm-68.27-10.61A34.75,34.75,0,0,1,562.05,252,27,27,0,0,1,583.51,242a27.91,27.91,0,0,1,12.24,2.65,28.89,28.89,0,0,1,9.44,7.26,32.88,32.88,0,0,1,6,10.63c.09.27.18.55.26.82a46.83,46.83,0,0,0,9.82-5A39.67,39.67,0,0,0,613,245.6a38.75,38.75,0,0,0-13-8.75,42.23,42.23,0,0,0-16.38-3.11,41.66,41.66,0,0,0-16.38,3.15,38.79,38.79,0,0,0-12.91,8.83,40,40,0,0,0-8.45,13.21,43.81,43.81,0,0,0-3,16.38c0,.68,0,1.38,0,2a70.55,70.55,0,0,1,11.25-4.93A37.4,37.4,0,0,1,556.14,262.62Z" transform="translate(-29.75 -142.32)"/><path class="cls-1" d="M633.8,258.2v2.57C622.46,271.39,605.4,279,589.24,279c-28.39,0-46.79,6.82-54.43,17.42,0-1.28,0-2.57,0-3.85v-5.25c10.74-8.89,26.24-14.88,43.65-14.85,32,0,49.05-10.53,55.24-22.1C633.77,253,633.8,255.6,633.8,258.2Z" transform="translate(-29.75 -142.32)"/><path class="cls-1" d="M449.88,257.41a46.11,46.11,0,0,1-11.2,4.19,59.2,59.2,0,0,1-8.08,1.34c-.77.08-1.53.13-2.29.18a58.54,58.54,0,0,1-8.08-.08c-5.75-.46-10.76-1.75-14-3.62l3.56-7.94a30.12,30.12,0,0,0,10.45,3,48.91,48.91,0,0,0,8.09.36c.78,0,1.57-.08,2.35-.15a40,40,0,0,0,8.09-1.44c4.57-1.27,8.5-3.39,10.89-6.43C449.78,250.37,449.86,253.92,449.88,257.41Z" transform="translate(-29.75 -142.32)"/><path class="cls-1" d="M794.93,292v24c-7.1-27.13-25.47-41.86-43.77-37-13.3,3.52-31.15-4.85-43.54-16.73v-4.13c0-2.33,0-4.67.1-7,9,14,28.4,22.49,41.89,20.19C772.58,267.43,786.19,276.59,794.93,292Z" transform="translate(-29.75 -142.32)"/><path class="cls-1" d="M419.08,359.31V322.72h3.59v36.59Zm22.82,0-17.33-18.77,16.06-17.82h4.54l-17.38,16.36,18.86,20.23Z" transform="translate(-29.75 -142.32)"/><path class="cls-1" d="M450.83,341a19.24,19.24,0,0,1,1.45-7.5,18.27,18.27,0,0,1,4.07-6.06,18.52,18.52,0,0,1,6.13-4,20.8,20.8,0,0,1,15.16,0,18.72,18.72,0,0,1,6.13,4,18.4,18.4,0,0,1,4.06,6.06,20,20,0,0,1,0,15,18.38,18.38,0,0,1-10.19,10.09,20.67,20.67,0,0,1-15.16,0,18.43,18.43,0,0,1-10.2-10.09A19.17,19.17,0,0,1,450.83,341Zm4,0a21.58,21.58,0,0,0,1.9,9.33,14.74,14.74,0,0,0,5.34,6.22,15.38,15.38,0,0,0,15.95,0,14.74,14.74,0,0,0,5.34-6.24,23.69,23.69,0,0,0,0-18.59,15,15,0,0,0-5.34-6.24,15.29,15.29,0,0,0-15.92,0,15,15,0,0,0-5.34,6.22A21.21,21.21,0,0,0,454.84,341Z" transform="translate(-29.75 -142.32)"/><path class="cls-1" d="M499.59,359.31,500.91,322h.63l26.57,31.78h.32l-1.16-31h3.59L529.54,360h-.63l-26.58-31.78H502l1.16,31.05Z" transform="translate(-29.75 -142.32)"/><path class="cls-1" d="M543.8,359.31V322.72h15.54v2.56l-8.77-1.2a31.19,31.19,0,0,0-3.17-.32v16.36q.84,0,3.27-.15l8.09-.52v2.4l-8.09-.52c-1.62-.11-2.71-.16-3.27-.16v18.14Z" transform="translate(-29.75 -142.32)"/><path class="cls-1" d="M569.64,359.31V322.72h16.11v2.56l-9.25-1.2a32,32,0,0,0-3.27-.32v15.95c.46,0,1.55-.06,3.27-.16l8.67-.52v2.4l-8.67-.52c-1.72-.11-2.81-.16-3.27-.16v17.51a29.58,29.58,0,0,0,3.33-.31l9.35-1.2v2.56Z" transform="translate(-29.75 -142.32)"/><path class="cls-1" d="M597,322.72h7.08q5.59,0,8.69,2.32a8.44,8.44,0,0,1,1.16,11.9,9.82,9.82,0,0,1-5.57,2.87v.31a9.86,9.86,0,0,1,5.71,3.25,16.63,16.63,0,0,1,3.32,6.32,30.77,30.77,0,0,0,2,5.36,7.33,7.33,0,0,0,2.16,2.74,7.9,7.9,0,0,0,2.83,1.21v.31H622.2a7.81,7.81,0,0,1-3.83-.84,6.64,6.64,0,0,1-2.56-2.82,27,27,0,0,1-2-5.49q-1.53-5.39-4.07-7.63a9,9,0,0,0-6.18-2.25h-.31v-.94h.31q8.51,0,8.51-7.74t-8-7.63h-3.49v35.34H597Z" transform="translate(-29.75 -142.32)"/><path class="cls-1" d="M630.92,359.31V322.72H647v2.56l-9.24-1.2a32.11,32.11,0,0,0-3.28-.32v15.95c.46,0,1.55-.06,3.28-.16l8.66-.52v2.4l-8.66-.52c-1.73-.11-2.82-.16-3.28-.16v17.51a29.58,29.58,0,0,0,3.33-.31l9.35-1.2v2.56Z" transform="translate(-29.75 -142.32)"/><path class="cls-1" d="M657.49,359.31,658.81,322h.63L686,353.77h.31l-1.16-31h3.59L687.44,360h-.63l-26.57-31.78h-.32l1.16,31.05Z" transform="translate(-29.75 -142.32)"/><path class="cls-1" d="M731.19,354.81l-.32,3.19a20.79,20.79,0,0,1-3.59,1.1,41.07,41.07,0,0,1-4.28.71,38,38,0,0,1-3.86.23,21.36,21.36,0,0,1-7.92-1.44,19.56,19.56,0,0,1-6.37-4,18.38,18.38,0,0,1-4.25-6,18.74,18.74,0,0,1,4.25-21.15,19.72,19.72,0,0,1,6.37-4,21.36,21.36,0,0,1,7.92-1.43,31.72,31.72,0,0,1,3.91.26c1.44.17,2.85.41,4.23.7a22.39,22.39,0,0,1,3.48,1l-.26,2.93h-.32a13,13,0,0,0-4.91-2.72,20,20,0,0,0-6.13-.94,15.67,15.67,0,0,0-8.37,2.22,15.23,15.23,0,0,0-5.66,6.22,22.52,22.52,0,0,0,0,18.69,15.35,15.35,0,0,0,5.63,6.19,15.59,15.59,0,0,0,8.4,2.23,19.17,19.17,0,0,0,6.68-1.15,16.69,16.69,0,0,0,5-2.83Z" transform="translate(-29.75 -142.32)"/><path class="cls-1" d="M741.75,359.31V322.72h3.59v36.59Z" transform="translate(-29.75 -142.32)"/><path class="cls-1" d="M753.58,359.31l14.21-36.59h3.28l14.21,36.59h-3.86l-6.55-17.15h-12l-5.44,17.15Zm14.58-33.87-4.91,15.47H774.4l-5.92-15.47Z" transform="translate(-29.75 -142.32)"/><path class="cls-1" d="M465.42,235.19l26.65,62.42,27-62.42h13a59.65,59.65,0,0,0-1.61,11.4q-.25,5.82-.26,11.62v34.31q0,5.82.26,11.62a59.65,59.65,0,0,0,1.61,11.4h-14.1a60.44,60.44,0,0,0,1.6-11.4q.25-5.81.26-11.62V255.2l-25.81,60.34h-5L463.14,255.2v37.32q0,5.82.26,11.62a59.65,59.65,0,0,0,1.61,11.4H451.43a60.44,60.44,0,0,0,1.6-11.4c.18-3.87.26-7.74.26-11.62V258.21c0-3.87-.08-7.74-.26-11.62a60.44,60.44,0,0,0-1.6-11.4Z" transform="translate(-29.75 -142.32)"/><path class="cls-1" d="M650,235.19l43.13,66.87v-44q0-5.81-.26-11.61a60.44,60.44,0,0,0-1.6-11.4h13.58a59.65,59.65,0,0,0-1.61,11.4Q703,252.3,703,258.1v34.32q0,5.81.26,11.66a59.82,59.82,0,0,0,1.61,11.46H689.89l-42.82-66.35v43.33c0,3.88.08,7.75.26,11.62a60.44,60.44,0,0,0,1.6,11.4H635.35a59.65,59.65,0,0,0,1.61-11.4q.25-5.81.26-11.62V258.21q0-5.8-.26-11.62a59.65,59.65,0,0,0-1.61-11.4Z" transform="translate(-29.75 -142.32)"/><path class="cls-1" d="M406.09,248.37l-7.63,17a27.74,27.74,0,0,0-3.62-8.81,23.14,23.14,0,0,0-7.1-7.31,19.29,19.29,0,0,0-10.86-2.91q-8.28,0-13.61,5t-5.33,13.37a15.79,15.79,0,0,0,3.55,10.62,34.18,34.18,0,0,0,9.21,7.39l12,6.84a89.56,89.56,0,0,1,12.77,8.73,40.89,40.89,0,0,1,9.86,11.8,33.19,33.19,0,0,1,3.82,16.44,36.75,36.75,0,0,1-4,17.46,29.07,29.07,0,0,1-11.45,11.79Q386.22,360,375.83,360a41.75,41.75,0,0,1-14.21-2.2,40.33,40.33,0,0,1-10.19-5.27,37.77,37.77,0,0,1-6.52-5.9,44.38,44.38,0,0,1-3.15-4.09l8.81-17.14h.4a44.76,44.76,0,0,0,4.93,10.22,29.06,29.06,0,0,0,8.16,8.41,20.27,20.27,0,0,0,11.77,3.39,18.25,18.25,0,0,0,14-5.9q5.46-5.9,5.46-15,0-9.29-5.26-14.87a56.09,56.09,0,0,0-12.89-10q-5.53-3.31-11.25-6.53a65.66,65.66,0,0,1-10.59-7.39,33.87,33.87,0,0,1-7.9-9.83,29.78,29.78,0,0,1-3.15-13.69,28.4,28.4,0,0,1,15.52-26.5,36.32,36.32,0,0,1,17.37-4,37.23,37.23,0,0,1,12.83,2,31.53,31.53,0,0,1,8.75,4.72,32.25,32.25,0,0,1,5.19,5C405.11,247,405.83,248,406.09,248.37Z" transform="translate(-29.75 -142.32)"/><path class="cls-1" d="M812.54,235.31a120.54,120.54,0,0,0-1.87,17.6q-.3,9-.3,17.92v53q0,9,.3,17.92a120.54,120.54,0,0,0,1.87,17.6H796.17a121.93,121.93,0,0,0,1.87-17.6q.3-9,.3-17.92v-53q0-9-.3-17.92a121.93,121.93,0,0,0-1.87-17.6Z" transform="translate(-29.75 -142.32)"/></svg>