<?xml version="1.0" encoding="UTF-8" standalone="no"?>
<svg
   width="2097.5117"
   height="252.20964"
   viewBox="0 0 2097.5117 252.20962"
   fill="none"
   version="1.1"
   id="svg11"
   sodipodi:docname="schdesign_white.svg"
   inkscape:version="1.3.2 (091e20e, 2023-11-25)"
   xmlns:inkscape="http://www.inkscape.org/namespaces/inkscape"
   xmlns:sodipodi="http://sodipodi.sourceforge.net/DTD/sodipodi-0.dtd"
   xmlns="http://www.w3.org/2000/svg"
   xmlns:svg="http://www.w3.org/2000/svg">
  <defs
     id="defs11" />
  <sodipodi:namedview
     id="namedview11"
     pagecolor="#505050"
     bordercolor="#eeeeee"
     borderopacity="1"
     inkscape:showpageshadow="0"
     inkscape:pageopacity="0"
     inkscape:pagecheckerboard="0"
     inkscape:deskcolor="#505050"
     inkscape:zoom="0.40893343"
     inkscape:cx="1062.5201"
     inkscape:cy="191.96278"
     inkscape:window-width="1512"
     inkscape:window-height="846"
     inkscape:window-x="0"
     inkscape:window-y="33"
     inkscape:window-maximized="1"
     inkscape:current-layer="svg11" />
  <g
     id="g11"
     transform="matrix(1.4509416,0,0,1.4509416,804.22432,73.594047)"
     style="fill:#f4e1be;fill-opacity:1">
    <path
       d="m 154.33319,56.866492 c -3.5539,0 -6.7724,-1.438433 -9.10383,-3.765413 -0.70199,-0.700203 -1.32347,-1.481508 -1.84988,-2.327871 -1.22603,-1.972869 -1.93455,-4.301037 -1.93455,-6.794676 0,-2.485618 0.70377,-4.806954 1.92267,-6.775366 0.5273,-0.851414 1.15056,-1.636877 1.85522,-2.340943 2.33203,-2.330545 5.55291,-3.771948 9.11037,-3.771948 3.55538,0 6.77418,1.439621 9.10591,3.767789 0.70912,0.70763 1.33565,1.497253 1.86473,2.353717 1.14344,1.849286 1.83176,4.009013 1.90989,6.323517 0.005,0.147051 0.007,0.294994 0.007,0.443234 0,0.14824 -0.002,0.295886 -0.007,0.442937 -0.0784,2.327575 -0.77447,4.498888 -1.9292,6.355006 -0.52522,0.844582 -1.14581,1.624104 -1.84601,2.323119 -2.33174,2.327574 -5.55053,3.766898 -9.10532,3.766898 z M 167.23897,1.8131969e-5 V 27.697126 c -0.008,-0.0065 -0.0166,-0.01337 -0.0252,-0.0199 -3.5426,-2.796654 -8.01684,-4.465913 -12.88053,-4.465913 -5.73204,0 -10.92311,2.318663 -14.68585,6.06833 -1.13631,1.132416 -2.1425,2.395575 -2.99421,3.765086 -1.86117,2.992723 -2.98351,6.492254 -3.11215,10.244298 v 1.416152 c 0.12864,3.747291 1.24831,7.24296 3.10502,10.233307 0.85023,1.369213 1.85523,2.632669 2.99035,3.765709 3.76392,3.7565 8.95915,6.079024 14.69684,6.079024 4.86369,0 9.33793,-1.669258 12.88053,-4.465912 0.009,-0.0065 0.0169,-0.01307 0.0252,-0.0199 0.62861,-0.497599 1.22751,-1.03055 1.79403,-1.596476 1.13186,-1.130069 2.13448,-2.390257 2.98292,-3.755609 1.94376,-3.127297 3.08096,-6.808044 3.12077,-10.751701 v -5.148885 h -0.0113 V 23.161104 h -0.0104 l 0.003,-0.0027 h 0.0505 V 1.8131969e-5 Z"
       fill="#ffffff"
       id="path1"
       style="fill:#f4e1be;fill-opacity:1;stroke-width:0.297074" />
    <path
       d="m 281.07712,23.330109 h -7.8683 v 41.462613 h 7.8683 z"
       fill="#ffffff"
       id="path2"
       style="fill:#f4e1be;fill-opacity:1;stroke-width:0.297074" />
    <path
       d="m 371.07211,33.018582 c -0.85557,-1.379611 -1.86562,-2.651682 -3.00639,-3.791555 -0.57335,-0.573055 -1.18235,-1.112542 -1.81809,-1.615785 -3.54409,-2.796357 -8.01802,-4.465616 -12.88113,-4.465616 -4.86013,0 -9.33109,1.665694 -12.87221,4.457892 -0.64168,0.507105 -1.25365,1.051345 -1.83295,1.629154 -1.13482,1.135416 -2.1419,2.400952 -2.99153,3.773433 -1.85077,2.986782 -2.96777,6.47651 -3.09551,10.217265 v 1.481805 c 0.18715,5.46319 2.48057,10.391944 6.09596,13.998719 0.57632,0.575135 1.18532,1.116701 1.82403,1.621133 V 44.628233 c -0.0119,-0.224588 -0.0178,-0.450662 -0.0178,-0.677923 0,-0.227262 0.006,-0.453335 0.0178,-0.677923 0.11586,-2.22954 0.79913,-4.309058 1.90721,-6.097443 0.52583,-0.851414 1.14968,-1.63658 1.85375,-2.340943 2.33203,-2.330545 5.55231,-3.771651 9.11125,-3.771651 3.55598,0 6.77329,1.439324 9.10532,3.767492 0.71001,0.70763 1.33683,1.497253 1.86563,2.354014 1.14373,1.849286 1.82997,4.008716 1.91018,6.32322 0.003,0.147051 0.006,0.294994 0.006,0.443234 0,0.14824 -0.003,0.295886 -0.006,0.442937 v 20.37155 h 7.92296 V 43.735228 c -0.0416,-3.928803 -1.17047,-7.596775 -3.09848,-10.716646 z"
       fill="#ffffff"
       id="path3"
       style="fill:#f4e1be;fill-opacity:1;stroke-width:0.297074" />
    <path
       d="m 188.65236,39.995661 c 0.63604,-1.954746 1.7266,-3.703918 3.1472,-5.123931 2.33203,-2.330248 5.55291,-3.771651 9.11037,-3.771651 5.72432,0 10.57702,3.73214 12.25757,8.895582 z m 32.67933,0 c -1.86206,-9.580041 -10.29748,-16.812009 -20.42176,-16.812009 -5.74184,0 -10.94034,2.325792 -14.70457,6.087045 -2.87359,2.870923 -4.91152,6.578109 -5.71718,10.724964 -0.20647,1.06204 -0.33243,2.152895 -0.37046,3.265734 v 1.45388 c 0.038,1.111057 0.16339,2.199833 0.36927,3.26009 1.85968,9.583012 10.29628,16.817654 20.42294,16.817654 5.73917,0 10.93559,-2.32401 14.69981,-6.082292 l -5.59449,-5.60133 c -2.33174,2.327575 -5.55053,3.766898 -9.10532,3.766898 -5.7264,0 -10.58059,-3.734517 -12.25935,-8.90093 h 32.68229 c 0.23737,-1.222459 0.36778,-2.483241 0.38056,-3.771948 v -0.430163 c -0.0128,-1.290787 -0.14349,-2.553054 -0.38174,-3.777593 z"
       fill="#ffffff"
       id="path4"
       style="fill:#f4e1be;fill-opacity:1;stroke-width:0.297074" />
    <path
       d="m 306.81799,56.825792 c -3.55598,0 -6.77329,-1.438729 -9.10532,-3.765412 -0.70169,-0.7005 -1.32317,-1.481508 -1.84958,-2.327872 -1.11433,-1.792841 -1.80116,-3.879488 -1.91672,-6.11705 -0.0119,-0.22429 -0.0175,-0.450661 -0.0175,-0.677922 0,-0.227262 0.006,-0.453335 0.0175,-0.677923 0.11556,-2.229243 0.79734,-4.308761 1.90483,-6.097146 0.52731,-0.851414 1.15057,-1.636878 1.85553,-2.34124 2.33203,-2.330248 5.55231,-3.771651 9.11126,-3.771651 3.553,0 6.77328,1.439621 9.10531,3.767789 0.71001,0.70763 1.33386,1.497253 1.86563,2.353717 1.14076,1.849286 1.82997,4.009013 1.90721,6.323516 0.006,0.147052 0.009,0.294698 0.009,0.442938 0,0.148537 -0.003,0.296182 -0.009,0.443234 -0.0772,2.327575 -0.77239,4.498888 -1.92801,6.355006 -0.52582,0.844581 -1.1467,1.623806 -1.84483,2.323119 -2.33203,2.327574 -5.55231,3.766897 -9.10531,3.766897 z m 17.70263,-23.819984 c -0.8526,-1.379314 -1.86265,-2.651385 -3.00341,-3.791258 -0.57633,-0.573352 -1.18236,-1.112542 -1.82107,-1.615785 -3.54112,-2.796654 -8.01505,-4.465913 -12.87815,-4.465913 -4.86013,0 -9.3311,1.665991 -12.87162,4.457892 -0.64317,0.507105 -1.25574,1.051345 -1.83414,1.629451 -1.13631,1.135119 -2.1419,2.400951 -2.99243,3.773433 -1.58132,2.551865 -2.62643,5.471211 -2.97697,8.600291 -0.06,0.532951 -0.0995,1.07214 -0.11824,1.616677 v 1.45388 c 0.12863,3.747291 1.24831,7.24296 3.10502,10.233009 0.85022,1.369511 1.85522,2.632967 2.99034,3.766007 0.57633,0.575135 1.18622,1.116404 1.82642,1.621133 3.54052,2.791901 8.01149,4.457594 12.87162,4.457594 4.8631,0 9.33703,-1.668961 12.87815,-4.465615 0.63871,-0.503244 1.24771,-1.043324 1.82107,-1.616677 1.13185,-1.129772 2.13299,-2.38996 2.98262,-3.755312 1.94286,-3.127297 3.08065,-6.808044 3.11927,-10.751701 v -0.430163 c -0.0386,-3.9291 -1.1675,-7.597072 -3.09848,-10.716943 z"
       fill="#ffffff"
       id="path5"
       style="fill:#f4e1be;fill-opacity:1;stroke-width:0.297074" />
    <path
       d="m 327.62505,79.430447 c 0,4.025055 -1.14374,7.783041 -3.12225,10.967079 -0.84963,1.365055 -1.85077,2.625243 -2.98262,3.755312 -0.57633,0.573353 -1.18236,1.113434 -1.82107,1.616677 -3.54112,2.796357 -8.01505,4.465615 -12.88112,4.465615 -4.85716,0 -9.32813,-1.66599 -12.86925,-4.457891 -0.64019,-0.504432 -1.25009,-1.045998 -1.82641,-1.621133 l 1.82641,-1.829381 3.7669,-3.773731 c 2.33203,2.326981 5.54934,3.765413 9.10235,3.765413 3.55597,0 6.77328,-1.439324 9.10531,-3.766898 0.7011,-0.699015 1.32198,-1.47824 1.8478,-2.322821 1.15265,-1.856416 1.85077,-4.027729 1.92801,-6.355304 0.006,-0.147051 0.009,-0.294697 0.009,-0.442937 0,-0.148537 -0.003,-0.296183 -0.009,-0.443234 -0.0772,-2.314504 -0.76645,-4.474231 -1.91018,-6.32322 -0.52879,-0.856761 -1.15562,-1.646383 -1.86266,-2.354014 l 3.77284,-3.781454 1.8181,-1.82136 c 1.14373,1.139872 2.15378,2.411943 3.00638,3.791554 1.96663,3.176612 3.10146,6.921527 3.10146,10.931728 z"
       fill="#ffffff"
       id="path6"
       style="fill:#f4e1be;fill-opacity:1;stroke-width:0.297074" />
    <path
       d="m 82.037568,58.71043 c -3.763927,3.758579 -8.960642,6.082292 -14.699814,6.082292 -5.737686,0 -10.932915,-2.322524 -14.696842,-6.079025 -3.613905,-3.606775 -5.907613,-8.535232 -6.095364,-13.998719 v -1.45388 c 0.187454,-5.459328 2.478191,-10.384814 6.08764,-13.990698 3.764224,-3.761253 8.962721,-6.087045 14.704566,-6.087045 5.738578,0 10.934996,2.323712 14.698923,6.081401 l -5.593012,5.603112 c -2.331733,-2.328466 -5.550529,-3.767789 -9.105911,-3.767789 -3.55746,0 -6.778336,1.441403 -9.110367,3.771651 -2.333813,2.332624 -3.777889,5.555877 -3.777889,9.116308 0,3.5637 1.446453,6.789626 3.784722,9.122547 2.331139,2.326981 5.549639,3.76571 9.103534,3.76571 3.554787,0 6.773584,-1.43962 9.105317,-3.766898 z"
       fill="#ffffff"
       id="path7"
       style="fill:#f4e1be;fill-opacity:1;stroke-width:0.297074" />
    <path
       d="m 122.48567,29.255249 c -0.57543,-0.574838 -1.18413,-1.115512 -1.82344,-1.619944 -3.54171,-2.79398 -8.01386,-4.461754 -12.87548,-4.461754 -4.85894,0 -9.329607,1.665991 -12.870432,4.458189 V 0 h -7.929201 v 25.738488 l 0.0074,0.0074 v 18.959557 c 0.187751,5.46319 2.481756,10.391647 6.095661,13.998422 0.576026,0.575135 1.185919,1.116701 1.826113,1.621133 V 44.656158 c -0.01159,-0.224588 -0.01753,-0.450364 -0.01753,-0.677626 0,-0.227559 0.0059,-0.453335 0.01753,-0.677923 0.115562,-2.22954 0.797347,-4.309058 1.905136,-6.09774 0.527009,-0.851117 1.150567,-1.63658 1.855227,-2.340646 2.332026,-2.330545 5.552906,-3.771948 9.110066,-3.771948 3.55538,0 6.77448,1.439621 9.10621,3.767789 2.21023,2.206666 3.62311,5.211866 3.76927,8.545927 0.009,0.190424 0.0128,0.38174 0.0128,0.574541 0,0.192207 -0.004,0.384117 -0.0128,0.574244 v 20.240243 h 7.9292 V 43.978532 c 0,-5.751352 -2.33351,-10.957573 -6.10576,-14.723283 z"
       fill="#ffffff"
       id="path8"
       style="fill:#f4e1be;fill-opacity:1;stroke-width:0.297074" />
    <path
       d="m 20.795177,44.005863 -0.04783,0.02971 0.03654,-0.03684 0.0068,-0.0068 0.01069,0.0101 0.01961,0.0202 z M 41.213962,39.995661 H 8.5346378 c 0.3205428,-0.9848 0.7563503,-1.917909 1.2919746,-2.782691 0.5273066,-0.851414 1.1505676,-1.636581 1.8552266,-2.34124 2.332031,-2.330248 5.552907,-3.771651 9.110367,-3.771651 3.555382,0 6.774178,1.43962 9.105911,3.767789 l 5.592715,-5.602815 c -3.76363,-3.757986 -8.960048,-6.081401 -14.698626,-6.081401 -4.859238,0 -9.329607,1.665694 -12.8704318,4.457892 -0.6434622,0.507105 -1.2557316,1.051047 -1.8341346,1.629153 -1.1363079,1.13512 -2.1419033,2.400952 -2.992426,3.773434 -1.3002927,2.098233 -2.23785815,4.444523 -2.72476237,6.95153 C 0.16398542,41.057701 0.03802547,42.148556 0,43.261395 v 1.45388 c 0.03802547,1.111057 0.16338949,2.199833 0.36926293,3.26009 H 33.051558 c -0.323514,0.995792 -0.764966,1.93811 -1.308017,2.811211 -0.525524,0.844284 -1.145814,1.623806 -1.846018,2.322821 -2.331733,2.327575 -5.55053,3.766898 -9.105317,3.766898 -3.554192,0 -6.772395,-1.438432 -9.103831,-3.765412 l -3.7666008,3.77373 -1.8264107,1.829381 c 0.5763235,0.575136 1.1862163,1.116701 1.8264107,1.621133 3.5408248,2.791901 8.0111938,4.457892 12.8704318,4.457892 5.739172,0 10.93559,-2.32401 14.699814,-6.082292 1.131852,-1.13007 2.134179,-2.390257 2.98292,-3.755609 1.308611,-2.105363 2.251523,-4.461457 2.74021,-6.979753 0.237362,-1.222459 0.367778,-2.483241 0.380552,-3.771948 v -0.430163 c -0.01277,-1.290787 -0.143487,-2.553054 -0.38174,-3.777593 z"
       fill="#ffffff"
       id="path9"
       style="fill:#f4e1be;fill-opacity:1;stroke-width:0.297074" />
    <path
       d="m 280.93542,3.9596988 c 0,2.1867614 -1.77294,3.9596988 -3.9597,3.9596988 -2.18676,0 -3.9597,-1.7729374 -3.9597,-3.9596988 0,-2.1867555 1.77294,-3.9596931337598 3.9597,-3.9596931337598 2.18676,0 3.9597,1.7729376337598 3.9597,3.9596931337598 z"
       fill="#ffffff"
       id="path10"
       style="fill:#f4e1be;fill-opacity:1;stroke-width:0.297074" />
    <path
       d="m 247.45845,44.005863 -0.0478,0.02971 0.0365,-0.03684 0.007,-0.0068 0.0104,0.0101 0.0196,0.0202 z m 20.41878,-4.010202 h -32.67932 c 0.32054,-0.9848 0.75635,-1.917909 1.29227,-2.782691 0.52701,-0.851414 1.15057,-1.636581 1.85493,-2.34124 2.33203,-2.330248 5.55321,-3.771651 9.11037,-3.771651 3.55538,0 6.77418,1.43962 9.10621,3.767789 l 5.59241,-5.602815 c -3.76363,-3.757986 -8.95975,-6.081401 -14.69862,-6.081401 -4.85924,0 -9.32961,1.665694 -12.87043,4.457892 -0.64317,0.507105 -1.25574,1.051047 -1.83414,1.629153 -1.13631,1.13512 -2.1419,2.400952 -2.99242,3.773434 -1.3003,2.098233 -2.23786,4.444523 -2.72477,6.95153 -0.20646,1.06204 -0.33242,2.152895 -0.37045,3.265734 v 1.45388 c 0.038,1.111057 0.16339,2.199833 0.36927,3.26009 h 32.68229 c -0.32351,0.995792 -0.76497,1.93811 -1.30802,2.811211 -0.52522,0.844284 -1.14581,1.623806 -1.84601,2.322821 -2.33174,2.327575 -5.55053,3.766898 -9.10532,3.766898 -3.55419,0 -6.7724,-1.438432 -9.10383,-3.765412 l -3.7666,3.77373 -1.82612,1.829381 c 0.57603,0.575136 1.18592,1.116701 1.82612,1.621133 3.54082,2.791901 8.01119,4.457892 12.87043,4.457892 5.73917,0 10.93589,-2.32401 14.69981,-6.082292 1.13185,-1.13007 2.13418,-2.390257 2.98322,-3.755609 1.30831,-2.105363 2.25123,-4.461457 2.73991,-6.979753 0.23736,-1.222459 0.36778,-2.483241 0.38055,-3.771948 v -0.430163 c -0.0128,-1.290787 -0.14348,-2.553054 -0.38174,-3.777593 z"
       fill="#ffffff"
       id="path11"
       style="fill:#f4e1be;fill-opacity:1;stroke-width:0.297074" />
  </g>
  <g
     id="g12"
     transform="translate(881.30163,-44.995856)"
     style="fill:#f4e1be;fill-opacity:1">
    <path
       d="m 712.73144,109.87623 c 5.03788,0 10.08705,-0.11295 15.12492,0.0226 a 53.842756,53.842756 0 0 1 5.71938,0.4556 l -1.3969,-0.18826 a 43.895024,43.895024 0 0 1 11.05095,2.94064 l -1.25382,-0.5309 a 35.125809,35.125809 0 0 1 7.73754,4.46933 c -0.35393,-0.27487 -0.70786,-0.54973 -1.06556,-0.82082 a 30.174535,30.174535 0 0 1 5.46335,5.42945 l -0.82459,-1.06179 a 27.941755,27.941755 0 0 1 3.56567,6.0959 c -0.1732,-0.41794 -0.35016,-0.83588 -0.52713,-1.25382 a 26.356594,26.356594 0 0 1 1.8186,6.63433 c -0.064,-0.46688 -0.12801,-0.93001 -0.18826,-1.39689 a 25.298565,25.298565 0 0 1 0,6.68327 c 0.064,-0.46312 0.12426,-0.93001 0.18826,-1.3969 a 24.903216,24.903216 0 0 1 -1.70941,6.26158 l 0.5309,-1.25382 a 25.644966,25.644966 0 0 1 -3.30211,5.64784 l 0.82082,-1.0618 a 27.896572,27.896572 0 0 1 -5.00775,4.98517 l 1.06179,-0.82082 a 33.280847,33.280847 0 0 1 -7.37984,4.26223 l 1.25382,-0.53089 a 44.508756,44.508756 0 0 1 -11.26556,2.97453 l 1.3969,-0.18826 a 71.689935,71.689935 0 0 1 -9.42437,0.50454 h -12.3876 a 5.2713188,5.2713188 0 1 0 0,10.50875 c 4.87221,0 9.74818,0.0414 14.62038,0 8.6412,-0.0753 17.50455,-1.78472 25.05383,-6.14485 5.79845,-3.34729 10.90033,-8.47177 13.55482,-14.68439 a 32.99469,32.99469 0 0 0 1.80354,-5.04541 33.672431,33.672431 0 0 0 0.82459,-5.30144 29.907203,29.907203 0 0 0 -0.80576,-9.36035 c -1.50609,-6.367 -5.24496,-12.28971 -10.13223,-16.61219 -5.86246,-5.18095 -13.21218,-8.44917 -20.89701,-9.78959 a 64.279967,64.279967 0 0 0 -11.01329,-0.941311 h -13.00887 a 5.3052058,5.3052058 0 0 0 -5.27132,5.271321 5.3014406,5.3014406 0 0 0 5.27132,5.27132 z"
       id="path1-2"
       style="fill:#f4e1be;fill-opacity:1;stroke-width:0.376523" />
    <path
       d="m 681.02823,156.85498 a 51.869777,51.869777 0 0 0 -28.65338,8.74662 58.21042,58.21042 0 0 0 -19.82393,22.84364 64.520942,64.520942 0 0 0 -6.45736,28.04341 5.2976753,5.2976753 0 0 0 5.27132,5.2525 5.3014406,5.3014406 0 0 0 5.27131,-5.2525 60.793366,60.793366 0 0 1 0.5422,-8.06511 c -0.064,0.46312 -0.12802,0.93001 -0.18826,1.3969 a 58.522934,58.522934 0 0 1 4.04385,-14.80488 l -0.54972,1.25759 a 55.913631,55.913631 0 0 1 7.15393,-12.24452 l -0.83588,1.05803 a 52.336665,52.336665 0 0 1 9.36036,-9.37166 l -1.07686,0.82082 a 48.816177,48.816177 0 0 1 10.70078,-6.24274 l -1.25382,0.52713 a 46.474205,46.474205 0 0 1 11.77386,-3.21927 l -1.3969,0.18449 a 47.483286,47.483286 0 0 1 6.1185,-0.40664 5.2713188,5.2713188 0 0 0 0,-10.50875 z"
       id="path2-2"
       style="fill:#f4e1be;fill-opacity:1;stroke-width:0.376523" />
    <path
       d="m 691.55957,104.62374 v 111.86491 a 5.2713188,5.2713188 0 0 0 10.50875,0 V 104.62374 a 5.2713188,5.2713188 0 1 0 -10.50875,0 z"
       id="path3-7"
       style="fill:#f4e1be;fill-opacity:1;stroke-width:0.376523" />
    <path
       class="cls-1"
       d="m 626.09356,104.62374 a 69.908982,69.908982 0 0 0 7.66977,31.88018 59.468006,59.468006 0 0 0 20.12514,22.45206 50.051172,50.051172 0 0 0 27.10964,8.11783 5.2713188,5.2713188 0 1 0 0,-10.50875 45.450063,45.450063 0 0 1 -5.81351,-0.37653 l 1.3969,0.1845 a 44.629244,44.629244 0 0 1 -11.24674,-3.06866 l 1.25382,0.52713 a 47.886166,47.886166 0 0 1 -10.63677,-6.23898 l 1.06556,0.82082 a 53.202667,53.202667 0 0 1 -9.41307,-9.43943 l 0.82082,1.0618 a 59.114075,59.114075 0 0 1 -7.5794,-13.0917 l 0.5309,1.25382 a 63.745305,63.745305 0 0 1 -4.3639,-16.08882 c 0.064,0.46689 0.12425,0.93001 0.18826,1.3969 a 67.397576,67.397576 0 0 1 -0.59491,-8.88217 5.3052058,5.3052058 0 0 0 -5.24119,-5.252491 5.3052058,5.3052058 0 0 0 -5.27132,5.271321 z"
       id="path4-3"
       style="fill:#f4e1be;fill-opacity:1;stroke-width:0.376523" />
    <path
       class="cls-1"
       d="m 769.88383,216.48865 a 62.077309,62.077309 0 0 0 -8.10277,-30.60753 58.989822,58.989822 0 0 0 -21.22458,-21.49945 55.529578,55.529578 0 0 0 -27.81374,-7.53046 5.2713188,5.2713188 0 0 0 0,10.51252 50.559477,50.559477 0 0 1 6.7021,0.44806 l -1.39689,-0.18826 a 50.28085,50.28085 0 0 1 12.70387,3.4866 l -1.25758,-0.52713 a 51.813298,51.813298 0 0 1 11.32204,6.63056 l -1.0618,-0.82082 a 53.982069,53.982069 0 0 1 9.60133,9.6164 c -0.27109,-0.37653 -0.54595,-0.71163 -0.82082,-1.06556 a 55.586056,55.586056 0 0 1 7.17653,12.30476 l -0.5309,-1.25759 a 56.478415,56.478415 0 0 1 3.88572,14.30787 c -0.0602,-0.46689 -0.12426,-0.93378 -0.1845,-1.3969 a 58.929578,58.929578 0 0 1 0.50077,7.58693 5.2713188,5.2713188 0 0 0 10.50876,0 z"
       id="path5-7"
       style="fill:#f4e1be;fill-opacity:1;stroke-width:0.376523" />
    <path
       d="m 863.87521,139.24124 h -21.89856 l -0.97896,0.802 c -2.56789,2.10476 -5.01528,4.14175 -7.30078,6.04695 -1.94662,1.66047 -4.06644,3.43766 -6.29546,5.27132 v 0.0188 q 0,-1.62282 -0.0188,-3.5958 c -0.0414,-6.59667 -0.13555,-15.87796 -0.28239,-27.59158 l -0.0452,-3.49037 H 812.3029 v 86.34797 h 15.11739 v -30.90876 l 19.41351,30.90876 h 18.27265 l -26.65404,-41.6095 z"
       id="path6-9"
       style="fill:#f4e1be;fill-opacity:1;stroke-width:0.376523" />
    <path
       d="m 886.03358,116.71389 a 8.9838332,8.9838332 0 0 0 -6.35194,15.32071 8.9816704,8.9816704 0 0 0 12.70388,-12.70012 8.814398,8.814398 0 0 0 -6.35194,-2.62059 z"
       id="path7-0"
       style="fill:#f4e1be;fill-opacity:1;stroke-width:0.376523" />
    <rect
       x="878.42029"
       y="139.35419"
       width="15.226581"
       height="63.685062"
       id="rect7"
       style="fill:#f4e1be;fill-opacity:1;stroke-width:0.376523" />
    <path
       d="m 941.84179,139.26007 a 24.319606,24.319606 0 0 0 -4.97387,-0.47065 28.540426,28.540426 0 0 0 -8.09147,1.28017 q -1.3329,0.39912 -2.57542,0.89236 l -0.15061,-1.60775 H 912.1605 v 63.69636 h 15.22658 v -44.19625 a 2.2591366,2.2591366 0 0 1 0.51207,-1.3743 8.4868232,8.4868232 0 0 1 2.15371,-2.01817 11.521597,11.521597 0 0 1 3.29457,-1.4609 14.80111,14.80111 0 0 1 3.97232,-0.54973 9.706757,9.706757 0 0 1 1.70941,0.21839 26.616394,26.616394 0 0 1 2.89546,0.75304 l 3.44142,1.07686 4.1794,-14.30787 -3.51296,-0.92624 c -1.4722,-0.38782 -2.8804,-0.72669 -4.19069,-1.00532 z"
       id="path8-2"
       style="fill:#f4e1be;fill-opacity:1;stroke-width:0.376523" />
    <rect
       x="964.23358"
       y="162.67603"
       width="44.211304"
       height="15.339539"
       id="rect8"
       style="fill:#f4e1be;fill-opacity:1;stroke-width:0.376523" />
    <path
       d="m 1063.7486,132.86671 v 0.064 c 0,1.55128 0,3.10255 -0.053,4.60864 -0.034,1.30653 -0.053,2.52647 -0.056,3.64098 q -1.7509,-0.44054 -3.7239,-0.8886 a 42.716508,42.716508 0 0 0 -10.3317,-1.0505 22.512296,22.512296 0 0 0 -8.4793,1.61905 21.913625,21.913625 0 0 0 -6.9393,4.45427 21.171875,21.171875 0 0 0 -4.7593,6.85271 21.808199,21.808199 0 0 0 -1.7697,8.84075 v 20.37742 c 0,4.78937 0.9715,8.81816 2.8917,11.97342 a 21.567224,21.567224 0 0 0 8.1969,7.64341 24.097457,24.097457 0 0 0 8.2308,2.63566 64.204662,64.204662 0 0 0 9.4131,0.66268 c 3.1929,0 6.5063,-0.13931 9.8574,-0.41041 3.351,-0.27109 6.4272,-0.56102 9.2511,-0.8547 l 3.1703,-0.33511 v -85.9865 h -14.6015 z m -20.8858,49.76502 v -21.28484 c 0,-1.77718 0.3163,-3.15902 0.9413,-4.10786 a 6.2465127,6.2465127 0 0 1 2.5905,-2.25914 12.082616,12.082616 0 0 1 4.3338,-1.07685 c 0.6702,-0.0489 1.3442,-0.0753 2.0069,-0.0753 a 26.989152,26.989152 0 0 1 3.4527,0.22214 45.645855,45.645855 0 0 1 5.452,1.04674 c 0.7267,0.19202 1.3969,0.37652 1.9956,0.59114 v 34.56102 c -1.8224,0.12426 -3.72,0.19579 -5.6742,0.21839 a 32.072209,32.072209 0 0 1 -8.1103,-0.85848 12.515617,12.515617 0 0 1 -5.4219,-2.68084 c -0.6702,-0.58361 -1.5664,-1.67176 -1.5664,-4.29612 z"
       id="path9-3"
       style="fill:#f4e1be;fill-opacity:1;stroke-width:0.376523" />
    <path
       d="m 1137.8896,143.53737 -0.075,-0.0602 c -1.988,-1.50609 -4.5935,-2.66201 -7.9672,-3.50542 a 38.981402,38.981402 0 0 0 -9.462,-1.18228 26.78583,26.78583 0 0 0 -9.1984,1.50609 20.942196,20.942196 0 0 0 -7.3422,4.51827 19.872872,19.872872 0 0 0 -4.7518,7.15393 24.327136,24.327136 0 0 0 -1.5926,8.9123 v 23.07331 c 0.1769,7.11628 2.4059,12.40266 6.6155,15.7123 3.9836,3.1289 9.2699,4.71783 15.716,4.71783 a 40.167449,40.167449 0 0 0 11.2957,-1.67176 45.295689,45.295689 0 0 0 10.5426,-4.60864 l 2.8691,-1.72071 -6.6192,-12.57963 -3.1478,1.70189 a 35.713185,35.713185 0 0 1 -7.617,3.09501 26.631455,26.631455 0 0 1 -6.8904,1.00908 c -2.4549,0 -4.3827,-0.51583 -5.9039,-1.57386 -0.7078,-0.49701 -1.6529,-1.46467 -1.6529,-4.17187 v -1.81489 l 33.0587,-2.48882 v -17.87353 a 30.027691,30.027691 0 0 0 -1.427,-9.49591 c -1.0392,-3.13267 -3.2118,-6.04319 -6.4498,-8.65249 z m -25.1743,23.72093 v -6.37829 c 0,-1.62282 0.2561,-2.8917 0.7531,-3.76523 a 6.0017729,6.0017729 0 0 1 1.9541,-2.12735 8.4265796,8.4265796 0 0 1 2.9256,-1.15593 18.51739,18.51739 0 0 1 3.6071,-0.37652 15.524034,15.524034 0 0 1 2.8277,0.32757 8.3475098,8.3475098 0 0 1 2.7825,1.12957 6.7021053,6.7021053 0 0 1 2.1537,2.22149 c 0.5384,0.85094 0.8133,2.11982 0.8133,3.76522 v 4.98893 z"
       id="path10-9"
       style="fill:#f4e1be;fill-opacity:1;stroke-width:0.376523" />
    <polygon
       points="1514.85,280.97 1567.28,111.83 1524.11,111.83 1494.73,208.47 1465.59,111.83 1422.45,111.83 1474.21,280.97 "
       id="polygon10"
       style="fill:#f4e1be;fill-opacity:1"
       transform="matrix(0.37652277,0,0,0.37652277,626.09356,97.247659)" />
  </g>
  <g
     id="g1"
     transform="matrix(0.81204686,0,0,0.81204686,69.83603,333.75126)">
    <path
       class="cls-1"
       d="m -65.3,-322.4 -14.26,-8.23 1.6,-2.78 14.26,8.24 a 3,3 0 0 1 -0.52,1.38 4.59,4.59 0 0 1 -1.08,1.39 z"
       id="path1-22"
       style="fill:#f4e1be" />
    <path
       class="cls-1"
       d="m 191.24,-194.98 v -4.57 l -7.24,-2.27 a 26.54,26.54 0 0 0 -1.35,-5 l 5.14,-5.58 -2.28,-4 -7.4,1.66 a 28,28 0 0 0 -3.7,-3.69 l 1.67,-7.4 -4,-2.29 -5.58,5.14 a 26.92,26.92 0 0 0 -5,-1.34 l -2.26,-7.25 h -2.29 v 13.72 a 20.59,20.59 0 1 1 -17.76,31 l -11.87,6.85 1.08,1.86 7.39,-1.65 a 26.74,26.74 0 0 0 3.69,3.68 l -1.66,7.4 4,2.29 5.57,-5.13 a 27.7,27.7 0 0 0 5.06,1.34 l 2.25,7.25 h 4.54 l 2.27,-7.25 a 27.71,27.71 0 0 0 5,-1.34 l 5.58,5.13 4,-2.29 -1.67,-7.4 a 27.37,27.37 0 0 0 3.7,-3.68 l 7.4,1.65 2.28,-4 -5.14,-5.57 a 26.64,26.64 0 0 0 1.35,-5 z"
       id="path2-7"
       style="fill:#f4e1be" />
    <path
       class="cls-1"
       d="m 156.95,-213.27 v 7.1 a 9.15,9.15 0 1 1 -8,13.65 l -5.83,3.37 a 16,16 0 1 0 13.79,-24.12 z"
       id="path3-3"
       style="fill:#f4e1be" />
    <path
       class="cls-1"
       d="m -33.95,-186.85 a 20.58,20.58 0 1 1 -17.75,-31 v -13.72 h -2.29 l -2.26,7.25 a 26.62,26.62 0 0 0 -5,1.34 l -5.57,-5.14 -4,2.29 1.65,7.4 a 27.89,27.89 0 0 0 -3.68,3.69 l -7.4,-1.66 -2.29,4 5.13,5.58 a 27.29,27.29 0 0 0 -1.34,5 l -7.25,2.27 v 4.57 l 7.24,2.26 a 27.39,27.39 0 0 0 1.34,5 l -5.13,5.57 2.29,4 7.4,-1.65 a 27.23,27.23 0 0 0 3.68,3.68 l -1.65,7.4 4,2.29 5.57,-5.13 a 27.39,27.39 0 0 0 5,1.34 l 2.26,7.25 h 4.57 l 2.27,-7.25 a 27.5,27.5 0 0 0 5,-1.34 l 5.58,5.13 4,-2.29 -1.66,-7.4 a 27.3,27.3 0 0 0 3.69,-3.68 l 7.4,1.65 1.07,-1.85 z"
       id="path4-7"
       style="fill:#f4e1be" />
    <path
       class="cls-1"
       d="m -43.76,-192.52 a 9.14,9.14 0 1 1 -8,-13.65 v -7.1 a 16,16 0 1 0 13.79,24.13 z"
       id="path5-9"
       style="fill:#f4e1be" />
    <path
       class="cls-1"
       d="m 86.93,-374.41 v -4.58 l -7.25,-2.27 a 26.72,26.72 0 0 0 -1.34,-5 l 5.14,-5.58 -2.29,-4 -7.4,1.67 a 28.12,28.12 0 0 0 -3.7,-3.7 l 1.67,-7.4 -4,-2.28 -5.52,5.14 a 26,26 0 0 0 -5,-1.35 L 54.97,-411 h -4.63 l -2.26,7.24 a 25.91,25.91 0 0 0 -5.05,1.35 l -5.57,-5.14 -4,2.28 1.65,7.4 a 27.37,27.37 0 0 0 -3.68,3.7 l -7.41,-1.67 -2.28,4 5.13,5.58 a 28.34,28.34 0 0 0 -1.35,5 l -7.24,2.27 v 4.58 l 7.24,2.26 a 28.45,28.45 0 0 0 1.35,5.05 l -5.13,5.57 0.67,1.15 11.9,-6.87 a 20.34,20.34 0 0 1 -2.31,-9.45 20.59,20.59 0 1 1 38.86,9.45 l 11.91,6.87 0.67,-1.15 -5.14,-5.57 a 26.82,26.82 0 0 0 1.34,-5.05 z"
       id="path6-0"
       style="fill:#f4e1be" />
    <path
       class="cls-1"
       d="m 52.62,-392.71 a 16,16 0 0 0 -16,16 15.76,15.76 0 0 0 1.69,7.15 l 5.88,-3.38 a 9,9 0 0 1 -0.71,-3.53 9.15,9.15 0 1 1 17.58,3.53 l 5.88,3.38 a 15.76,15.76 0 0 0 1.69,-7.15 16,16 0 0 0 -16.01,-16 z"
       id="path7-2"
       style="fill:#f4e1be" />
    <path
       class="cls-1"
       d="m 117.3,-174.22 -34,19.64 1.82,5.62 h 5.07 l 2.51,-7.75 a 31.42,31.42 0 0 0 5.59,-1.45 l 6.19,5.5 4.39,-2.45 -1.85,-7.93 a 30,30 0 0 0 4.1,-3.95 l 8.21,1.78 2.53,-4.25 z"
       id="path8-3"
       style="fill:#f4e1be" />
    <path
       class="cls-1"
       d="m -51.76,-282.15 -8.21,-1.79 -2.53,4.25 5.68,6 a 28.07,28.07 0 0 0 -1.44,5.37 l -8,2.43 v 4.89 l 8,2.43 a 28.07,28.07 0 0 0 1.5,5.42 l -5.68,6 2.53,4.24 8.15,-1.8 v 0 -37.46 z"
       id="path9-9"
       style="fill:#f4e1be" />
    <path
       class="cls-1"
       d="m 119.24,-385.06 0.67,-1.89 -2.66,-2 a 12.63,12.63 0 0 0 0.18,-2.29 l 3,-1.55 -0.37,-2 -3.31,-0.39 a 12.34,12.34 0 0 0 -1,-2.08 l 1.77,-2.81 -1.3,-1.53 -3.07,1.31 a 11.65,11.65 0 0 0 -1.88,-1.3 l 0.12,-3.33 -1.89,-0.67 -2,2.66 a 11.85,11.85 0 0 0 -2.29,-0.18 l -1.55,-2.95 -2,0.37 -0.42,3.37 a 12.6,12.6 0 0 0 -2.06,1 l -2.82,-1.77 -1.53,1.3 1.3,3.06 a 11.88,11.88 0 0 0 -1.29,1.89 l -3.33,-0.12 -0.68,1.89 2.67,2 a 11.75,11.75 0 0 0 -0.18,2.28 l -2.93,1.47 0.37,2 3.31,0.4 a 12.24,12.24 0 0 0 1,2.07 l -1.83,2.82 1.3,1.53 3.06,-1.31 a 11.93,11.93 0 0 0 1.89,1.3 l -0.13,3.33 1.9,0.67 2,-2.66 a 12.52,12.52 0 0 0 2.28,0.18 l 1.56,2.94 2,-0.36 0.4,-3.31 a 12.24,12.24 0 0 0 2.07,-1 l 2.82,1.77 1.53,-1.3 -1.3,-3.07 a 12,12 0 0 0 1.3,-1.9 z m -16.88,2.54 a 9,9 0 1 1 11.54,-5.5 9,9 0 0 1 -11.53,5.5 z"
       id="path10-97"
       style="fill:#f4e1be" />
    <path
       class="cls-1"
       d="m 107.74,-397.67 a 7,7 0 1 0 4.27,9 7,7 0 0 0 -4.27,-9 z m -3.73,10.51 a 4,4 0 1 1 5.13,-2.44 4,4 0 0 1 -5.13,2.44 z"
       id="path11-0"
       style="fill:#f4e1be" />
    <path
       class="cls-1"
       d="m 15.69,-383.46 0.39,-1.1 -1.54,-1.16 a 6.53,6.53 0 0 0 0.1,-1.32 l 1.71,-0.9 -0.21,-1.14 -1.9,-0.24 a 7.38,7.38 0 0 0 -0.58,-1.2 l 1,-1.63 -0.75,-0.89 -1.78,0.76 a 7,7 0 0 0 -1.09,-0.75 l 0.07,-1.93 -1.07,-0.36 -1.16,1.55 a 6.54,6.54 0 0 0 -1.32,-0.11 l -0.9,-1.7 -1.14,0.21 -0.24,1.91 a 6.83,6.83 0 0 0 -1.19,0.57 l -1.63,-1 -0.89,0.75 0.76,1.77 a 6.46,6.46 0 0 0 -0.75,1.1 l -1.93,-0.08 -0.41,1.03 1.54,1.16 a 6.53,6.53 0 0 0 -0.1,1.32 l -1.71,0.9 0.21,1.14 1.92,0.23 a 6.6,6.6 0 0 0 0.57,1.2 l -1,1.63 0.76,0.89 1.77,-0.76 a 7,7 0 0 0 1.09,0.75 l -0.07,1.93 1.09,0.39 1.16,-1.55 a 6.54,6.54 0 0 0 1.32,0.11 l 0.9,1.7 1.15,-0.21 0.23,-1.91 a 7.29,7.29 0 0 0 1.2,-0.57 l 1.63,1 0.88,-0.76 -0.76,-1.77 a 6.52,6.52 0 0 0 0.76,-1.1 z m -9.77,1.47 a 5.23,5.23 0 1 1 6.68,-3.18 5.23,5.23 0 0 1 -6.68,3.18 z"
       id="path12"
       style="fill:#f4e1be" />
    <path
       class="cls-1"
       d="m 9.03,-390.76 a 4.07,4.07 0 1 0 2.47,5.2 4.06,4.06 0 0 0 -2.47,-5.2 z m -2.16,6.08 a 2.32,2.32 0 1 1 3,-1.41 2.32,2.32 0 0 1 -3,1.41 z"
       id="path13"
       style="fill:#f4e1be" />
    <path
       class="cls-1"
       d="m 10.29,-356.21 3.22,-1.69 -0.4,-2.16 -3.61,-0.43 a 13,13 0 0 0 -1.08,-2.26 l 1.94,-3.07 -1.42,-1.68 -3.34,1.43 a 12.72,12.72 0 0 0 -2.06,-1.41 l 0.13,-3.64 -2.06,-0.73 -2.18,2.91 a 13.24,13.24 0 0 0 -2.5,-0.2 l -1.69,-3.18 -2.16,0.4 -0.44,3.6 a 12.91,12.91 0 0 0 -2.25,1.08 l -3.07,-1.94 -1.67,1.42 1.42,3.35 a 12.73,12.73 0 0 0 -1.42,2.06 l -3.63,-0.14 -0.73,2.07 2.95,2.1 a 12.46,12.46 0 0 0 -0.2,2.5 l -3.21,1.69 0.39,2.16 3.61,0.43 a 13,13 0 0 0 1.08,2.26 l -1.93,3.07 1.41,1.68 3.34,-1.43 a 13.06,13.06 0 0 0 2.07,1.42 l -0.1,2.47 7.14,-4.13 a 9.67,9.67 0 0 1 -4,-0.54 9.86,9.86 0 1 1 12.59,-6 9.66,9.66 0 0 1 -1.11,2.2 l 5.11,-3 -0.34,-0.25 a 13.29,13.29 0 0 0 0.2,-2.42 z"
       id="path14"
       style="fill:#f4e1be" />
    <path
       class="cls-1"
       d="m -0.29,-363.23 a 7.68,7.68 0 1 0 4.66,9.8 7.68,7.68 0 0 0 -4.66,-9.8 z m 1.53,8.81 a 4.38,4.38 0 1 1 -2.66,-5.6 4.37,4.37 0 0 1 2.66,5.6 z"
       id="path15"
       style="fill:#f4e1be" />
    <path
       class="cls-1"
       d="m 130.63,-346.07 0.41,-2.78 -4.2,-2 a 15.79,15.79 0 0 0 -0.38,-3.19 l 3.63,-2.94 -1,-2.61 -4.66,0.34 a 16.25,16.25 0 0 0 -1.91,-2.58 l 1.67,-4.35 -2.21,-1.75 -3.89,2.61 a 16.72,16.72 0 0 0 -2.95,-1.27 l -0.73,-4.61 -2.79,-0.41 -2,4.21 a 15.61,15.61 0 0 0 -3.18,0.38 l -3,-3.64 -2.61,1 0.35,4.65 a 15.78,15.78 0 0 0 -2.57,1.92 l -4.37,-1.6 -1.75,2.2 2.64,3.86 a 16.72,16.72 0 0 0 -1.27,2.95 l -2.33,0.37 5.82,3.35 a 12.65,12.65 0 1 1 20.16,11.64 l 4.65,2.7 3.49,1.33 1.74,-2.21 -2.63,-3.85 a 17.39,17.39 0 0 0 1.27,-2.94 z"
       id="path16"
       style="fill:#f4e1be" />
    <path
       class="cls-1"
       d="m 119.12,-354.14 a 9.85,9.85 0 0 0 -19,3.75 l 5.09,2.94 a 6,6 0 0 1 -0.42,-0.84 5.63,5.63 0 1 1 7.31,3.15 5.31,5.31 0 0 1 -2.2,0.39 l 4.88,2.83 a 9.86,9.86 0 0 0 4.34,-12.22 z"
       id="path17"
       style="fill:#f4e1be" />
    <path
       class="cls-1"
       d="m 11.4,-160.67 -4.3,-2.49 a 9.53,9.53 0 1 1 -16.3,-9.41 l -4.31,-2.48 -1.54,-0.35 -1.06,1.84 2.38,2.58 a 11.52,11.52 0 0 0 -0.62,2.34 l -3.36,1 v 2.12 l 3.36,1.06 a 11.6,11.6 0 0 0 0.62,2.33 l -2.38,2.58 1.06,1.84 3.43,-0.77 a 12.49,12.49 0 0 0 1.7,1.71 l -0.77,3.43 1.84,1.05 2.58,-2.37 a 12.21,12.21 0 0 0 2.34,0.62 l 1,3.36 h 2.17 l 1,-3.36 a 12.11,12.11 0 0 0 2.33,-0.62 l 2.59,2.37 1.88,-1.03 -0.77,-3.43 a 12,12 0 0 0 1.71,-1.71 l 3.43,0.77 1.06,-1.84 z"
       id="path18"
       style="fill:#f4e1be" />
    <path
       class="cls-1"
       d="m 2.38,-165.88 a 4.24,4.24 0 1 1 -6.77,-3.91 l -3,-1.71 a 7.42,7.42 0 1 0 12.63,7.27 z"
       id="path19"
       style="fill:#f4e1be" />
    <path
       class="cls-1"
       d="m -20.66,-155.32 -0.35,-1.37 -2.34,-0.13 a 8.8,8.8 0 0 0 -0.79,-1.41 l 1.12,-2.09 -1,-1 -2.09,1.06 a 9.22,9.22 0 0 0 -1.39,-0.82 l -0.07,-2.35 -1.36,-0.38 -1.28,2 a 7.87,7.87 0 0 0 -1.61,0 l -1.24,-2 -1.37,0.35 -0.12,2.34 a 7.83,7.83 0 0 0 -1.42,0.79 l -2.06,-1.12 -1,1 1.06,2.09 a 8.45,8.45 0 0 0 -0.82,1.39 l -2.35,0.07 -0.38,1.36 2,1.28 a 8.65,8.65 0 0 0 0,1.61 l -2,1.24 0.35,1.37 2.35,0.12 a 8.76,8.76 0 0 0 0.78,1.41 l -1.11,2.07 1,1 2.09,-1.06 a 8.06,8.06 0 0 0 1.39,0.82 l 0.06,2.35 1.37,0.38 1.27,-2 a 8.77,8.77 0 0 0 1.62,0 l 1.23,2 1.37,-0.35 0.13,-2.35 a 8.76,8.76 0 0 0 1.41,-0.78 l 1.99,1.11 1,-1 -1.07,-2.09 a 8.11,8.11 0 0 0 0.83,-1.39 l 2.35,-0.06 0.38,-1.37 -2,-1.28 a 7.87,7.87 0 0 0 0,-1.61 z m -8.89,8.1 a 6.37,6.37 0 1 1 4.6,-7.74 6.37,6.37 0 0 1 -4.6,7.73 z"
       id="path20"
       style="fill:#f4e1be" />
    <path
       class="cls-1"
       d="m -32.34,-158.2 a 5,5 0 1 0 6,3.58 5,5 0 0 0 -6,-3.58 z m 1.94,7.61 a 2.83,2.83 0 1 1 2,-3.44 2.82,2.82 0 0 1 -2,3.44 z"
       id="path21"
       style="fill:#f4e1be" />
    <path
       class="cls-1"
       d="m 181.1,-250.15 v -2.33 l -3.7,-1.15 a 13,13 0 0 0 -0.68,-2.57 l 2.62,-2.85 -1.17,-2 -3.77,0.84 a 15.1,15.1 0 0 0 -1.88,-1.87 l 0.85,-3.77 -2,-1.17 -2.85,2.62 a 12.31,12.31 0 0 0 -2.57,-0.68 l -1.15,-3.7 h -2.33 l -1.16,3.7 a 12.65,12.65 0 0 0 -2.57,0.68 l -1.78,-1.65 v 6.67 a 10.37,10.37 0 0 1 6.68,-2.41 10.5,10.5 0 0 1 0,21 10.37,10.37 0 0 1 -6.68,-2.41 v 6.67 l 1.78,-1.65 a 14.12,14.12 0 0 0 2.57,0.69 l 1.16,3.69 h 2.33 l 1.15,-3.69 a 13.7,13.7 0 0 0 2.57,-0.69 l 2.85,2.62 2,-1.17 -0.85,-3.77 a 13.36,13.36 0 0 0 1.88,-1.88 l 3.77,0.85 1.17,-2 -2.62,-2.83 a 13.24,13.24 0 0 0 0.68,-2.58 z"
       id="path22"
       style="fill:#f4e1be" />
    <path
       class="cls-1"
       d="m 163.63,-259.47 a 8.18,8.18 0 0 0 -6.68,3.47 v 9.38 a 8.16,8.16 0 1 0 6.68,-12.85 z m 0,12.94 a 4.66,4.66 0 1 1 4.65,-4.67 4.67,4.67 0 0 1 -4.65,4.67 z"
       id="path23"
       style="fill:#f4e1be" />
    <path
       class="cls-1"
       d="m 150.87,-145.45 0.33,-2.3 -3.49,-1.67 a 14.43,14.43 0 0 0 -0.31,-2.64 l 3,-2.44 -0.87,-2.16 -3.85,0.3 a 13.79,13.79 0 0 0 -1.6,-2.13 l 1.38,-3.61 -1.83,-1.44 -3.2,2.22 a 13.88,13.88 0 0 0 -2.44,-1 l -0.62,-3.81 -2.31,-0.33 -1.66,3.49 a 13,13 0 0 0 -2.65,0.31 l -2.43,-3 -2.17,0.87 0.31,3.85 a 14.46,14.46 0 0 0 -2.13,1.6 l -3.61,-1.37 -1.48,1.76 2.19,3.18 a 14.46,14.46 0 0 0 -1,2.45 l -3.81,0.62 -0.33,2.3 3.49,1.67 a 13.61,13.61 0 0 0 0.31,2.64 l -3,2.44 0.87,2.16 3.85,-0.3 a 13.18,13.18 0 0 0 1.59,2.12 l -1.37,3.62 1.84,1.43 3.18,-2.18 a 13.57,13.57 0 0 0 2.44,1 l 0.62,3.82 2.31,0.33 1.66,-3.49 a 14.43,14.43 0 0 0 2.64,-0.32 l 2.44,3 2.17,-0.86 -0.31,-3.86 a 13.72,13.72 0 0 0 2.13,-1.59 l 3.61,1.37 1.44,-1.83 -2.19,-3.18 a 13.66,13.66 0 0 0 1,-2.45 z m -18.63,6.75 a 10.48,10.48 0 1 1 11.87,-8.89 10.48,10.48 0 0 1 -11.87,8.89 z"
       id="path24"
       style="fill:#f4e1be" />
    <path
       class="cls-1"
       d="m 134.89,-157.15 a 8.16,8.16 0 1 0 6.92,9.23 8.16,8.16 0 0 0 -6.92,-9.23 z m -1.83,12.83 a 4.66,4.66 0 1 1 5.27,-4 4.66,4.66 0 0 1 -5.27,4 z"
       id="path25"
       style="fill:#f4e1be" />
    <path
       class="cls-1"
       d="m 194.83,-229.72 0.17,-1.18 -1.78,-0.85 a 6.63,6.63 0 0 0 -0.16,-1.34 l 1.52,-1.24 -0.44,-1.11 -2,0.16 a 7.9,7.9 0 0 0 -0.81,-1.09 l 0.7,-1.83 -0.94,-0.74 -1.62,1.12 a 6.17,6.17 0 0 0 -1.23,-0.5 l -0.32,-2 -1.17,-0.16 -0.85,1.77 a 7.55,7.55 0 0 0 -1.35,0.16 l -1.24,-1.52 -1.1,0.44 0.15,2 a 8.45,8.45 0 0 0 -1.08,0.81 l -1.84,-0.69 -0.73,0.93 1.11,1.62 a 7.58,7.58 0 0 0 -0.53,1.24 l -1.94,0.32 -0.17,1.18 1.78,0.84 a 6.73,6.73 0 0 0 0.16,1.35 l -1.52,1.24 0.44,1.1 2,-0.15 a 6.48,6.48 0 0 0 0.81,1.08 l -0.7,1.84 0.94,0.73 1.61,-1.11 a 7.69,7.69 0 0 0 1.25,0.53 l 0.32,1.94 1.17,0.17 0.85,-1.78 a 6.55,6.55 0 0 0 1.34,-0.16 l 1.25,1.53 1.1,-0.44 -0.16,-2 a 6.55,6.55 0 0 0 1.09,-0.81 l 1.84,0.7 0.73,-0.93 -1.12,-1.62 a 6.94,6.94 0 0 0 0.54,-1.25 z m -9.48,3.4 a 5.34,5.34 0 1 1 6,-4.52 5.33,5.33 0 0 1 -6,4.52 z"
       id="path26"
       style="fill:#f4e1be" />
    <path
       class="cls-1"
       d="m 186.69,-235.68 a 4.15,4.15 0 1 0 3.52,4.7 4.15,4.15 0 0 0 -3.52,-4.7 z m -0.93,6.52 a 2.37,2.37 0 1 1 2.68,-2 2.37,2.37 0 0 1 -2.68,2 z"
       id="path27"
       style="fill:#f4e1be" />
    <path
       class="cls-1"
       d="m 70.69,-178.32 a 3.15,3.15 0 0 1 -1.6,-0.43 3.2,3.2 0 0 1 -1.6,-2.77 v -66 a 3.2,3.2 0 0 1 1.6,-2.77 l 11.43,-6.6 a 3.2,3.2 0 0 1 4.8,2.78 v 66 a 3.22,3.22 0 0 1 -1.6,2.78 l -11.43,6.59 a 3.18,3.18 0 0 1 -1.6,0.42 z m 3.2,-64.1 v 52.82 a 1.47,1.47 0 0 0 2.2,1.27 v 0 a 5.67,5.67 0 0 0 2.83,-4.91 v -52.81 a 1.46,1.46 0 0 0 -2.2,-1.27 v 0 a 5.66,5.66 0 0 0 -2.83,4.9 z"
       id="path28"
       style="fill:#f4e1be" />
    <path
       class="cls-1"
       d="m 93.56,-191.52 a 3.12,3.12 0 0 1 -1.6,-0.43 3.2,3.2 0 0 1 -1.6,-2.77 v -66 a 3.2,3.2 0 0 1 1.6,-2.77 l 11.43,-6.61 a 3.2,3.2 0 0 1 4.85,2.78 v 66 a 3.22,3.22 0 0 1 -1.6,2.78 l -11.43,6.6 a 3.18,3.18 0 0 1 -1.65,0.42 z m 3.2,-64.1 v 52.81 a 1.46,1.46 0 0 0 2.2,1.27 v 0 a 5.66,5.66 0 0 0 2.83,-4.9 v -52.82 a 1.47,1.47 0 0 0 -2.2,-1.27 v 0 a 5.68,5.68 0 0 0 -2.83,4.91 z"
       id="path29"
       style="fill:#f4e1be" />
    <path
       class="cls-1"
       d="m 116.43,-204.72 a 3.12,3.12 0 0 1 -1.6,-0.43 3.19,3.19 0 0 1 -1.59,-2.77 v -66 a 3.2,3.2 0 0 1 1.6,-2.77 l 11.4,-6.63 a 3.2,3.2 0 0 1 4.8,2.78 v 66 a 3.22,3.22 0 0 1 -1.6,2.78 l -11.43,6.6 a 3.18,3.18 0 0 1 -1.58,0.44 z m 3.2,-64.1 v 52.81 a 1.46,1.46 0 0 0 2.2,1.27 v 0 a 5.66,5.66 0 0 0 2.83,-4.9 v -52.82 a 1.47,1.47 0 0 0 -2.2,-1.27 v 0 a 5.69,5.69 0 0 0 -2.83,4.91 z"
       id="path30"
       style="fill:#f4e1be" />
    <path
       class="cls-1"
       d="m 53.36,-274.72 a 3.12,3.12 0 0 1 -1.6,-0.43 l -11.44,-6.6 a 3.22,3.22 0 0 1 -1.6,-2.78 v -16.6 H 7.62 a 3.2,3.2 0 0 1 -1.6,-0.43 l -11.44,-6.6 a 3.2,3.2 0 0 1 0,-5.55 l 11.44,-6.61 a 3.22,3.22 0 0 1 1.6,-0.43 h 31.1 v -16.57 a 3.2,3.2 0 0 1 1.6,-2.77 l 11.44,-6.6 a 3.21,3.21 0 0 1 3.2,0 l 11.43,6.6 a 3.2,3.2 0 0 1 1.6,2.77 v 16.61 h 31.1 a 3.17,3.17 0 0 1 1.6,0.43 l 11.44,6.59 a 3.21,3.21 0 0 1 0,5.55 l -11.44,6.6 a 3.17,3.17 0 0 1 -1.6,0.43 h -31.1 v 16.6 a 3.22,3.22 0 0 1 -1.6,2.78 l -11.43,6.6 a 3.18,3.18 0 0 1 -1.6,0.41 z m -8.24,-11.6 8.24,4.75 8.23,-4.75 v -18 a 3.2,3.2 0 0 1 3.2,-3.2 h 32.53 a 3.36,3.36 0 0 0 1.7,-0.46 v 0 a 3.4,3.4 0 0 0 0,-5.89 v 0 a 3.45,3.45 0 0 0 -1.69,-0.45 H 64.79 a 3.2,3.2 0 0 1 -3.2,-3.2 v -18 l -8.23,-4.75 -8.24,4.75 v 18 a 3.2,3.2 0 0 1 -3.2,3.2 H 9.39 a 3.45,3.45 0 0 0 -1.7,0.45 v 0 a 3.4,3.4 0 0 0 0,5.89 v 0 a 3.39,3.39 0 0 0 1.7,0.46 h 32.53 a 3.2,3.2 0 0 1 3.2,3.2 z"
       id="path31"
       style="fill:#f4e1be" />
    <path
       class="cls-1"
       d="m 36.24,-178.32 a 3.15,3.15 0 0 1 -1.6,-0.43 l -11.4,-6.57 a 3.31,3.31 0 0 1 -1.17,-1.18 l -15.55,-26.93 -14.38,8.3 a 3.21,3.21 0 0 1 -3.2,0 l -11.44,-6.6 a 3.22,3.22 0 0 1 -1.6,-2.78 v -13.23 a 3.19,3.19 0 0 1 1.61,-2.77 l 14.37,-8.29 -15.57,-26.94 a 3.22,3.22 0 0 1 -0.43,-1.6 v -13.2 a 3.21,3.21 0 0 1 4.81,-2.78 l 11.43,6.61 a 3.13,3.13 0 0 1 1.17,1.17 l 15.55,26.93 14.38,-8.3 a 3.21,3.21 0 0 1 3.2,0 l 11.44,6.6 a 3.2,3.2 0 0 1 1.6,2.77 v 13.22 a 3.2,3.2 0 0 1 -1.6,2.77 l -11.44,6.61 v 0 l -2.94,1.69 15.55,26.93 a 3.2,3.2 0 0 1 0.43,1.6 v 13.2 a 3.2,3.2 0 0 1 -3.22,3.2 z m -8.3,-11.69 v 0 a 3.4,3.4 0 0 0 5.1,-2.95 v 0 a 3.36,3.36 0 0 0 -0.46,-1.7 l -16.27,-28.18 a 3.2,3.2 0 0 1 1.18,-4.38 l 15.55,-9 v -9.51 l -8.24,-4.75 -15.55,9 a 3.2,3.2 0 0 1 -4.37,-1.18 l -16.27,-28.17 a 3.51,3.51 0 0 0 -1.24,-1.24 v 0 a 3.39,3.39 0 0 0 -5.09,2.94 v 0 a 3.41,3.41 0 0 0 0.45,1.7 L -1,-239.25 a 3.2,3.2 0 0 1 -1.17,4.37 l -15.55,9 v 9.56 l 8.23,4.75 15.55,-9 a 3.2,3.2 0 0 1 4.37,1.17 l 16.27,28.18 a 3.31,3.31 0 0 0 1.26,1.21 z"
       id="path32"
       style="fill:#f4e1be" />
    <path
       class="cls-1"
       d="m 44.52,-360.62 -75.05,43.3 a 22.49,22.49 0 0 0 -11.23,19.51 v 86.67 a 17.66,17.66 0 0 0 8.84,15.3 l 75.05,43.34 a 22.53,22.53 0 0 0 22.49,0 l 75.06,-43.34 a 17.67,17.67 0 0 0 8.83,-15.3 v -86.67 a 22.5,22.5 0 0 0 -11.27,-19.51 l -75,-43.3 a 17.7,17.7 0 0 0 -17.72,0 z m 86.92,55.45 -72.2,41.69 a 11.74,11.74 0 0 1 -11.75,0 l -72.25,-41.69 a 4,4 0 0 1 0,-7 l 69.25,-40 a 17.7,17.7 0 0 1 17.67,0 l 69.25,40 a 4,4 0 0 1 0.03,7 z m -159.82,6.34 72.2,41.69 a 11.73,11.73 0 0 1 5.88,10.17 v 83.38 a 4.05,4.05 0 0 1 -6.08,3.51 l -69.25,-40 a 17.68,17.68 0 0 1 -8.83,-15.24 v -80 a 4.05,4.05 0 0 1 6.08,-3.51 z m 85.4,135.24 v -83.38 a 11.73,11.73 0 0 1 5.87,-10.17 l 72.21,-41.69 a 4,4 0 0 1 6.07,3.51 v 80 a 17.66,17.66 0 0 1 -8.83,15.3 l -69.25,40 a 4,4 0 0 1 -6.07,-3.57 z"
       id="path33"
       style="fill:#f4e1be" />
    <path
       class="cls-1"
       d="m 43.79,-133.61 a 1.92,1.92 0 0 0 0.34,-1.87 c -0.14,-0.42 -1.43,-3.26 -1.74,-3.75 a 10.68,10.68 0 0 0 -9.15,-4.78 c -3.9,0 -7.5,1.85 -10.48,4.25 -1.37,1.1 -3.24,2.5 -4.08,4.08 -1.07,2 0.47,3.46 2,4.56 a 17.35,17.35 0 0 0 11.84,3.27 17.74,17.74 0 0 0 11.27,-5.76 z"
       id="path34"
       style="fill:#f4e1be" />
    <path
       class="cls-1"
       d="m 49.86,-132.08 c -4.36,0.91 -7.55,4.32 -9.2,8.34 -1.92,4.67 -1.6,10 -0.23,14.76 a 37.66,37.66 0 0 0 2.9,7.23 c 0.55,1 1.22,1.67 2.4,1.16 a 16.28,16.28 0 0 0 3.37,-2.14 22.59,22.59 0 0 0 8,-12.57 24.5,24.5 0 0 0 -2.13,-17 c -0.27,-0.55 -4.83,0.17 -5.11,0.22 z"
       id="path35"
       style="fill:#f4e1be" />
    <path
       class="cls-1"
       d="m 62.3,-145.53 c -1,0.15 -2.32,5.31 -2.41,5.8 a 13.32,13.32 0 0 0 4.53,12.3 c 4.15,3.72 9.86,4.91 15.29,5 1.4,0 2.81,0 4.21,-0.13 1.4,-0.13 3.14,0 4.37,-0.64 2.27,-1.13 1.13,-4.74 0.59,-6.58 a 21.85,21.85 0 0 0 -8.37,-11.64 25.49,25.49 0 0 0 -18.21,-4.11 z"
       id="path36"
       style="fill:#f4e1be" />
    <path
       class="cls-1"
       d="m 164.54,-310.69 a 1.93,1.93 0 0 0 -1.79,0.63 c -0.29,0.34 -2.11,2.88 -2.38,3.39 a 10.71,10.71 0 0 0 0.44,10.31 c 1.92,3.4 5.35,5.58 8.92,7 1.64,0.64 3.78,1.56 5.57,1.5 2.27,-0.08 2.76,-2.14 3,-4 a 17.42,17.42 0 0 0 -3.09,-11.9 17.71,17.71 0 0 0 -10.67,-6.93 z"
       id="path37"
       style="fill:#f4e1be" />
    <path
       class="cls-1"
       d="m 162.83,-316.72 c 3,3.33 7.52,4.39 11.82,3.81 5,-0.68 9.45,-3.62 12.9,-7.19 a 37,37 0 0 0 4.81,-6.13 c 0.62,-1 0.84,-1.89 -0.2,-2.66 a 16.22,16.22 0 0 0 -3.53,-1.84 22.65,22.65 0 0 0 -14.89,-0.66 24.56,24.56 0 0 0 -13.66,10.35 c -0.33,0.52 2.56,4.11 2.75,4.32 z"
       id="path38"
       style="fill:#f4e1be" />
    <path
       class="cls-1"
       d="m 144.96,-320.76 c 0.64,0.81 5.76,-0.65 6.23,-0.82 a 13.3,13.3 0 0 0 8.39,-10.07 c 1.14,-5.45 -0.68,-11 -3.32,-15.74 q -1,-1.83 -2.22,-3.57 c -0.76,-1.11 -1.6,-2.71 -2.74,-3.47 -2.12,-1.4 -4.67,1.39 -6,2.77 a 21.82,21.82 0 0 0 -5.9,13.08 25.5,25.5 0 0 0 5.56,17.82 z"
       id="path39"
       style="fill:#f4e1be" />
    <path
       class="cls-1"
       d="m -63.04,-300.97 a 21.84,21.84 0 0 1 -10.94,-2.94 1.37,1.37 0 0 1 0.39,-2.53 27.32,27.32 0 0 0 16.83,-11.88 c 6.06,-9.8 3.31,-20 2.7,-22 a 1.37,1.37 0 0 1 2,-1.6 22,22 0 0 1 -11,41 z m -3.6,-5 a 1.07,1.07 0 0 0 0.26,2 19.22,19.22 0 0 0 18.08,-31.35 1.07,1.07 0 0 0 -1.87,0.79 28.78,28.78 0 0 1 -16.47,28.51 z"
       id="path40"
       style="fill:#f4e1be" />
    <circle
       class="cls-1"
       cx="-78.760002"
       cy="-332.01999"
       r="4.5700002"
       id="circle40"
       style="fill:#f4e1be" />
    <path
       class="cls-1"
       d="m -55.76,-338.84 a 24.32,24.32 0 0 1 -2.44,19.52 24.18,24.18 0 0 1 -15,10.6 c 0,0 8.55,-10.16 10.76,-14 2.21,-3.84 6.68,-16.12 6.68,-16.12 z"
       id="path41"
       style="fill:#f4e1be" />
    <path
       class="cls-1"
       d="m 304.47,-273.5 v 12.7 c 0,0.87 0,1.76 0,2.65 -4.89,-11.87 -14.78,-12.26 -19.69,-23.15 l 4.56,-10.15 c 3.97,7.61 9.77,12.48 15.13,17.95 z"
       id="path42"
       style="fill:#f4e1be" />
    <path
       class="cls-1"
       d="m 624.9,-249.26 c -0.1,1.89 -0.28,3.79 -0.57,5.67 -6.94,-5 -24,-5.85 -31.84,-1.55 -0.2,-1.41 -0.31,-2.85 -0.37,-4.27 0,-0.52 0,-1 -0.07,-1.53 10.19,-1.72 22.77,-1.49 32.85,1.68 z"
       id="path43"
       style="fill:#f4e1be" />
    <path
       class="cls-1"
       d="m 307.77,-302.63 a 44.13,44.13 0 0 0 10.61,-0.4 c 0,-1.23 0.08,-2.47 0.13,-3.7 a 61.28,61.28 0 0 1 1.6,-11.39 h -14.09 a 61.28,61.28 0 0 1 1.6,11.39 c 0.07,1.41 0.11,2.73 0.15,4.1 z m 10.47,41.83 v -25.83 a 67.51,67.51 0 0 1 -8.67,0.56 c -0.57,0 -1.14,0 -1.7,0 v 25.3 c 0,3.88 -0.08,7.74 -0.26,11.62 a 61.27,61.27 0 0 1 -1.6,11.4 h 14.09 a 61.27,61.27 0 0 1 -1.6,-11.4 c -0.17,-3.91 -0.26,-7.77 -0.26,-11.65 z"
       id="path44"
       style="fill:#f4e1be" />
    <path
       class="cls-1"
       d="m 628.03,-277.65 v 0 c 0.34,0 0.68,0 1,0 -0.32,0.03 -0.66,0.03 -1,0 z m 11.15,28.47 c -0.16,-3.88 -0.26,-7.74 -0.26,-11.62 v -10.06 a 18.2,18.2 0 0 0 -1.86,0.4 29.79,29.79 0 0 1 -8.49,0.94 v 8.72 c 0,3.88 -0.1,7.74 -0.26,11.62 a 59.67,59.67 0 0 1 -1.62,11.4 h 14.11 a 59.67,59.67 0 0 1 -1.62,-11.4 z m 14.15,-68.94 c -0.68,1.58 -1.48,3.25 -2.37,5 -0.89,1.75 -2.05,3.72 -3.43,6 -1.38,2.28 -3.15,5 -5.28,8.24 l -8.19,12.23 -8.61,-12.35 q -4.79,-7.14 -7.42,-11.4 a 57.18,57.18 0 0 1 -4.09,-7.66 h -15.55 a 97.36,97.36 0 0 1 7.15,8 q 3.33,4.14 6.32,8.59 l 10,14.84 a 29.82,29.82 0 0 0 11.91,0.74 61.16,61.16 0 0 1 12.2,-0.91 l 9.93,-14.67 c 2.07,-2.89 4.2,-5.73 6.37,-8.49 a 102.52,102.52 0 0 1 7.11,-8.08 z"
       id="path45"
       style="fill:#f4e1be" />
    <path
       class="cls-1"
       d="m 508.65,-280.09 a 74.21,74.21 0 0 1 -11.27,5.36 38.76,38.76 0 0 1 -1.94,9.41 32.81,32.81 0 0 1 -6,10.68 29.59,29.59 0 0 1 -9.44,7.31 27.38,27.38 0 0 1 -12.24,2.69 27.08,27.08 0 0 1 -12.2,-2.68 28.3,28.3 0 0 1 -9.27,-7.31 33.72,33.72 0 0 1 -5.91,-10.69 2.92,2.92 0 0 1 -0.13,-0.42 47,47 0 0 0 -9.94,4.54 40.22,40.22 0 0 0 8.26,12.88 38,38 0 0 0 12.91,8.87 43.9,43.9 0 0 0 32.76,0 38.62,38.62 0 0 0 13,-8.87 40.4,40.4 0 0 0 8.5,-13.26 44,44 0 0 0 3,-16.39 c -0.04,-0.73 -0.05,-1.43 -0.09,-2.12 z m -68.27,-10.61 a 34.75,34.75 0 0 1 5.91,-10.62 27,27 0 0 1 21.46,-10 27.91,27.91 0 0 1 12.24,2.65 28.89,28.89 0 0 1 9.44,7.26 32.88,32.88 0 0 1 6,10.63 c 0.09,0.27 0.18,0.55 0.26,0.82 a 46.83,46.83 0 0 0 9.82,-5 39.67,39.67 0 0 0 -8.27,-12.76 38.75,38.75 0 0 0 -13,-8.75 42.23,42.23 0 0 0 -16.38,-3.11 41.66,41.66 0 0 0 -16.38,3.15 38.79,38.79 0 0 0 -12.91,8.83 40,40 0 0 0 -8.45,13.21 43.81,43.81 0 0 0 -3,16.38 c 0,0.68 0,1.38 0,2 a 70.55,70.55 0 0 1 11.25,-4.93 37.4,37.4 0 0 1 2.01,-9.76 z"
       id="path46"
       style="fill:#f4e1be" />
    <path
       class="cls-1"
       d="m 518.04,-295.12 v 2.57 c -11.34,10.62 -28.4,18.23 -44.56,18.23 -28.39,0 -46.79,6.82 -54.43,17.42 0,-1.28 0,-2.57 0,-3.85 V -266 c 10.74,-8.89 26.24,-14.88 43.65,-14.85 32,0 49.05,-10.53 55.24,-22.1 0.07,2.63 0.1,5.23 0.1,7.83 z"
       id="path47"
       style="fill:#f4e1be" />
    <path
       class="cls-1"
       d="m 334.12,-295.91 a 46.11,46.11 0 0 1 -11.2,4.19 59.2,59.2 0 0 1 -8.08,1.34 c -0.77,0.08 -1.53,0.13 -2.29,0.18 a 58.54,58.54 0 0 1 -8.08,-0.08 c -5.75,-0.46 -10.76,-1.75 -14,-3.62 l 3.56,-7.94 a 30.12,30.12 0 0 0 10.45,3 48.91,48.91 0 0 0 8.09,0.36 c 0.78,0 1.57,-0.08 2.35,-0.15 a 40,40 0 0 0 8.09,-1.44 c 4.57,-1.27 8.5,-3.39 10.89,-6.43 0.12,3.55 0.2,7.1 0.22,10.59 z"
       id="path48"
       style="fill:#f4e1be" />
    <path
       class="cls-1"
       d="m 679.17,-261.32 v 24 c -7.1,-27.13 -25.47,-41.86 -43.77,-37 -13.3,3.52 -31.15,-4.85 -43.54,-16.73 v -4.13 c 0,-2.33 0,-4.67 0.1,-7 9,14 28.4,22.49 41.89,20.19 22.97,-3.9 36.58,5.26 45.32,20.67 z"
       id="path49"
       style="fill:#f4e1be" />
    <path
       class="cls-1"
       d="m 303.32,-194.01 v -36.59 h 3.59 v 36.59 z m 22.82,0 -17.33,-18.77 16.06,-17.82 h 4.54 l -17.38,16.36 18.86,20.23 z"
       id="path50"
       style="fill:#f4e1be" />
    <path
       class="cls-1"
       d="m 335.07,-212.32 a 19.24,19.24 0 0 1 1.45,-7.5 18.27,18.27 0 0 1 4.07,-6.06 18.52,18.52 0 0 1 6.13,-4 20.8,20.8 0 0 1 15.16,0 18.72,18.72 0 0 1 6.13,4 18.4,18.4 0 0 1 4.06,6.06 20,20 0 0 1 0,15 18.38,18.38 0 0 1 -10.19,10.09 20.67,20.67 0 0 1 -15.16,0 18.43,18.43 0 0 1 -10.2,-10.09 19.17,19.17 0 0 1 -1.45,-7.5 z m 4,0 a 21.58,21.58 0 0 0 1.9,9.33 14.74,14.74 0 0 0 5.34,6.22 15.38,15.38 0 0 0 15.95,0 14.74,14.74 0 0 0 5.34,-6.24 23.69,23.69 0 0 0 0,-18.59 15,15 0 0 0 -5.34,-6.24 15.29,15.29 0 0 0 -15.92,0 15,15 0 0 0 -5.34,6.22 21.21,21.21 0 0 0 -1.92,9.3 z"
       id="path51"
       style="fill:#f4e1be" />
    <path
       class="cls-1"
       d="m 383.83,-194.01 1.32,-37.31 h 0.63 l 26.57,31.78 h 0.32 l -1.16,-31 h 3.59 l -1.32,37.22 h -0.63 l -26.58,-31.78 h -0.33 l 1.16,31.05 z"
       id="path52"
       style="fill:#f4e1be" />
    <path
       class="cls-1"
       d="m 428.04,-194.01 v -36.59 h 15.54 v 2.56 l -8.77,-1.2 a 31.19,31.19 0 0 0 -3.17,-0.32 v 16.36 q 0.84,0 3.27,-0.15 l 8.09,-0.52 v 2.4 l -8.09,-0.52 c -1.62,-0.11 -2.71,-0.16 -3.27,-0.16 v 18.14 z"
       id="path53"
       style="fill:#f4e1be" />
    <path
       class="cls-1"
       d="m 453.88,-194.01 v -36.59 h 16.11 v 2.56 l -9.25,-1.2 a 32,32 0 0 0 -3.27,-0.32 v 15.95 c 0.46,0 1.55,-0.06 3.27,-0.16 l 8.67,-0.52 v 2.4 l -8.67,-0.52 c -1.72,-0.11 -2.81,-0.16 -3.27,-0.16 v 17.51 a 29.58,29.58 0 0 0 3.33,-0.31 l 9.35,-1.2 v 2.56 z"
       id="path54"
       style="fill:#f4e1be" />
    <path
       class="cls-1"
       d="m 481.24,-230.6 h 7.08 q 5.59,0 8.69,2.32 a 8.44,8.44 0 0 1 1.16,11.9 9.82,9.82 0 0 1 -5.57,2.87 v 0.31 a 9.86,9.86 0 0 1 5.71,3.25 16.63,16.63 0 0 1 3.32,6.32 30.77,30.77 0 0 0 2,5.36 7.33,7.33 0 0 0 2.16,2.74 7.9,7.9 0 0 0 2.83,1.21 v 0.31 h -2.18 a 7.81,7.81 0 0 1 -3.83,-0.84 6.64,6.64 0 0 1 -2.56,-2.82 27,27 0 0 1 -2,-5.49 q -1.53,-5.39 -4.07,-7.63 a 9,9 0 0 0 -6.18,-2.25 h -0.31 v -0.94 h 0.31 q 8.51,0 8.51,-7.74 0,-7.74 -8,-7.63 h -3.49 v 35.34 h -3.58 z"
       id="path55"
       style="fill:#f4e1be" />
    <path
       class="cls-1"
       d="m 515.16,-194.01 v -36.59 h 16.08 v 2.56 l -9.24,-1.2 a 32.11,32.11 0 0 0 -3.28,-0.32 v 15.95 c 0.46,0 1.55,-0.06 3.28,-0.16 l 8.66,-0.52 v 2.4 l -8.66,-0.52 c -1.73,-0.11 -2.82,-0.16 -3.28,-0.16 v 17.51 a 29.58,29.58 0 0 0 3.33,-0.31 l 9.35,-1.2 v 2.56 z"
       id="path56"
       style="fill:#f4e1be" />
    <path
       class="cls-1"
       d="m 541.73,-194.01 1.32,-37.31 h 0.63 l 26.56,31.77 h 0.31 l -1.16,-31 h 3.59 l -1.3,37.23 h -0.63 l -26.57,-31.78 h -0.32 l 1.16,31.05 z"
       id="path57"
       style="fill:#f4e1be" />
    <path
       class="cls-1"
       d="m 615.43,-198.51 -0.32,3.19 a 20.79,20.79 0 0 1 -3.59,1.1 41.07,41.07 0 0 1 -4.28,0.71 38,38 0 0 1 -3.86,0.23 21.36,21.36 0 0 1 -7.92,-1.44 19.56,19.56 0 0 1 -6.37,-4 18.38,18.38 0 0 1 -4.25,-6 18.74,18.74 0 0 1 4.25,-21.15 19.72,19.72 0 0 1 6.37,-4 21.36,21.36 0 0 1 7.92,-1.43 31.72,31.72 0 0 1 3.91,0.26 c 1.44,0.17 2.85,0.41 4.23,0.7 a 22.39,22.39 0 0 1 3.48,1 l -0.26,2.93 h -0.32 a 13,13 0 0 0 -4.91,-2.72 20,20 0 0 0 -6.13,-0.94 15.67,15.67 0 0 0 -8.37,2.22 15.23,15.23 0 0 0 -5.66,6.22 22.52,22.52 0 0 0 0,18.69 15.35,15.35 0 0 0 5.63,6.19 15.59,15.59 0 0 0 8.4,2.23 19.17,19.17 0 0 0 6.68,-1.15 16.69,16.69 0 0 0 5,-2.83 z"
       id="path58"
       style="fill:#f4e1be" />
    <path
       class="cls-1"
       d="m 625.99,-194.01 v -36.59 h 3.59 v 36.59 z"
       id="path59"
       style="fill:#f4e1be" />
    <path
       class="cls-1"
       d="m 637.82,-194.01 14.21,-36.59 h 3.28 l 14.21,36.59 h -3.86 l -6.55,-17.15 h -12 l -5.44,17.15 z m 14.58,-33.87 -4.91,15.47 h 11.15 l -5.92,-15.47 z"
       id="path60"
       style="fill:#f4e1be" />
    <path
       class="cls-1"
       d="m 349.66,-318.13 26.65,62.42 27,-62.42 h 13 a 59.65,59.65 0 0 0 -1.61,11.4 q -0.25,5.82 -0.26,11.62 v 34.31 q 0,5.82 0.26,11.62 a 59.65,59.65 0 0 0 1.61,11.4 h -14.1 a 60.44,60.44 0 0 0 1.6,-11.4 q 0.25,-5.81 0.26,-11.62 v -37.32 l -25.81,60.34 h -5 l -25.88,-60.34 v 37.32 q 0,5.82 0.26,11.62 a 59.65,59.65 0 0 0 1.61,11.4 h -13.58 a 60.44,60.44 0 0 0 1.6,-11.4 c 0.18,-3.87 0.26,-7.74 0.26,-11.62 v -34.31 c 0,-3.87 -0.08,-7.74 -0.26,-11.62 a 60.44,60.44 0 0 0 -1.6,-11.4 z"
       id="path61"
       style="fill:#f4e1be" />
    <path
       class="cls-1"
       d="m 534.24,-318.13 43.13,66.87 v -44 q 0,-5.81 -0.26,-11.61 a 60.44,60.44 0 0 0 -1.6,-11.4 h 13.58 a 59.65,59.65 0 0 0 -1.61,11.4 q -0.24,5.85 -0.24,11.65 v 34.32 q 0,5.81 0.26,11.66 a 59.82,59.82 0 0 0 1.61,11.46 h -14.98 l -42.82,-66.35 v 43.33 c 0,3.88 0.08,7.75 0.26,11.62 a 60.44,60.44 0 0 0 1.6,11.4 h -13.58 a 59.65,59.65 0 0 0 1.61,-11.4 q 0.25,-5.81 0.26,-11.62 v -34.31 q 0,-5.8 -0.26,-11.62 a 59.65,59.65 0 0 0 -1.61,-11.4 z"
       id="path62"
       style="fill:#f4e1be" />
    <path
       class="cls-1"
       d="m 290.33,-304.95 -7.63,17 a 27.74,27.74 0 0 0 -3.62,-8.81 23.14,23.14 0 0 0 -7.1,-7.31 19.29,19.29 0 0 0 -10.86,-2.91 q -8.28,0 -13.61,5 -5.33,5 -5.33,13.37 a 15.79,15.79 0 0 0 3.55,10.62 34.18,34.18 0 0 0 9.21,7.39 l 12,6.84 a 89.56,89.56 0 0 1 12.77,8.73 40.89,40.89 0 0 1 9.86,11.8 33.19,33.19 0 0 1 3.82,16.44 36.75,36.75 0 0 1 -4,17.46 29.07,29.07 0 0 1 -11.45,11.79 q -7.48,4.22 -17.87,4.22 a 41.75,41.75 0 0 1 -14.21,-2.2 40.33,40.33 0 0 1 -10.19,-5.27 37.77,37.77 0 0 1 -6.52,-5.9 44.38,44.38 0 0 1 -3.15,-4.09 l 8.81,-17.14 h 0.4 a 44.76,44.76 0 0 0 4.93,10.22 29.06,29.06 0 0 0 8.16,8.41 20.27,20.27 0 0 0 11.77,3.39 18.25,18.25 0 0 0 14,-5.9 q 5.46,-5.9 5.46,-15 0,-9.29 -5.26,-14.87 a 56.09,56.09 0 0 0 -12.89,-10 q -5.53,-3.31 -11.25,-6.53 a 65.66,65.66 0 0 1 -10.59,-7.39 33.87,33.87 0 0 1 -7.9,-9.83 29.78,29.78 0 0 1 -3.15,-13.69 28.4,28.4 0 0 1 15.52,-26.5 36.32,36.32 0 0 1 17.37,-4 37.23,37.23 0 0 1 12.83,2 31.53,31.53 0 0 1 8.75,4.72 32.25,32.25 0 0 1 5.19,5 c 1.2,1.57 1.92,2.57 2.18,2.94 z"
       id="path63"
       style="fill:#f4e1be" />
    <path
       class="cls-1"
       d="m 696.78,-318.01 a 120.54,120.54 0 0 0 -1.87,17.6 q -0.3,9 -0.3,17.92 v 53 q 0,9 0.3,17.92 a 120.54,120.54 0 0 0 1.87,17.6 h -16.37 a 121.93,121.93 0 0 0 1.87,-17.6 q 0.3,-9 0.3,-17.92 v -53 q 0,-9 -0.3,-17.92 a 121.93,121.93 0 0 0 -1.87,-17.6 z"
       id="path64"
       style="fill:#f4e1be" />
  </g>
</svg>
