<svg width="1259" height="337" viewBox="0 0 1259 337" fill="none" xmlns="http://www.w3.org/2000/svg">
<path d="M519.511 191.422C507.548 191.422 496.714 186.58 488.866 178.747C486.503 176.39 484.411 173.76 482.639 170.911C478.512 164.27 476.127 156.433 476.127 148.039C476.127 139.672 478.496 131.858 482.599 125.232C484.374 122.366 486.472 119.722 488.844 117.352C496.694 109.507 507.536 104.655 519.511 104.655C531.479 104.655 542.314 109.501 550.163 117.338C552.55 119.72 554.659 122.378 556.44 125.261C560.289 131.486 562.606 138.756 562.869 146.547C562.886 147.042 562.894 147.54 562.894 148.039C562.894 148.538 562.886 149.035 562.869 149.53C562.605 157.365 560.262 164.674 556.375 170.922C554.607 173.765 552.518 176.389 550.161 178.742C542.312 186.577 531.477 191.422 519.511 191.422ZM562.954 6.10352e-05V93.2331C562.926 93.2111 562.898 93.1881 562.869 93.1661C550.944 83.7521 535.883 78.1331 519.511 78.1331C500.216 78.1331 482.742 85.9381 470.076 98.5601C466.251 102.372 462.864 106.624 459.997 111.234C453.732 121.308 449.954 133.088 449.521 145.718V150.485C449.954 163.099 453.723 174.866 459.973 184.932C462.835 189.541 466.218 193.794 470.039 197.608C482.709 210.253 500.197 218.071 519.511 218.071C535.883 218.071 550.944 212.452 562.869 203.038C562.898 203.016 562.926 202.994 562.954 202.971C565.07 201.296 567.086 199.502 568.993 197.597C572.803 193.793 576.178 189.551 579.034 184.955C585.577 174.428 589.405 162.038 589.539 148.763V131.431H589.501V77.9641H589.466L589.475 77.9551H589.645V6.10352e-05H562.954Z" fill="white"/>
<path d="M946.152 78.533H919.666V218.103H946.152V78.533Z" fill="white"/>
<path d="M1249.09 111.146C1246.21 106.502 1242.81 102.22 1238.97 98.383C1237.04 96.454 1234.99 94.638 1232.85 92.944C1220.92 83.531 1205.86 77.912 1189.49 77.912C1173.13 77.912 1158.08 83.519 1146.16 92.918C1144 94.625 1141.94 96.457 1139.99 98.402C1136.17 102.224 1132.78 106.484 1129.92 111.104C1123.69 121.158 1119.93 132.905 1119.5 145.497V150.485C1120.13 168.875 1127.85 185.466 1140.02 197.607C1141.96 199.543 1144.01 201.366 1146.16 203.064V150.226C1146.12 149.47 1146.1 148.709 1146.1 147.944C1146.1 147.179 1146.12 146.418 1146.16 145.662C1146.55 138.157 1148.85 131.157 1152.58 125.137C1154.35 122.271 1156.45 119.628 1158.82 117.257C1166.67 109.412 1177.51 104.561 1189.49 104.561C1201.46 104.561 1212.29 109.406 1220.14 117.243C1222.53 119.625 1224.64 122.283 1226.42 125.167C1230.27 131.392 1232.58 138.661 1232.85 146.452C1232.86 146.947 1232.87 147.445 1232.87 147.944C1232.87 148.443 1232.86 148.94 1232.85 149.435V218.009H1259.52V147.22C1259.38 133.995 1255.58 121.648 1249.09 111.146Z" fill="white"/>
<path d="M635.035 134.632C637.176 128.052 640.847 122.164 645.629 117.384C653.479 109.54 664.321 104.688 676.296 104.688C695.565 104.688 711.9 117.251 717.557 134.632H635.035ZM745.039 134.632C738.771 102.384 710.376 78.04 676.296 78.04C656.968 78.04 639.469 85.869 626.798 98.53C617.125 108.194 610.265 120.673 607.553 134.632C606.858 138.207 606.434 141.879 606.306 145.625V150.519C606.434 154.259 606.856 157.924 607.549 161.493C613.809 193.751 642.208 218.104 676.296 218.104C695.615 218.104 713.107 210.281 725.778 197.63L706.946 178.775C699.097 186.61 688.262 191.455 676.296 191.455C657.02 191.455 640.68 178.884 635.029 161.493H745.043C745.842 157.378 746.281 153.134 746.324 148.796V147.348C746.281 143.003 745.841 138.754 745.039 134.632Z" fill="white"/>
<path d="M1032.8 191.285C1020.83 191.285 1010 186.442 1002.15 178.61C999.788 176.252 997.696 173.623 995.924 170.774C992.173 164.739 989.861 157.715 989.472 150.183C989.432 149.428 989.413 148.666 989.413 147.901C989.413 147.136 989.432 146.375 989.472 145.619C989.861 138.115 992.156 131.115 995.884 125.095C997.659 122.229 999.757 119.585 1002.13 117.214C1009.98 109.37 1020.82 104.518 1032.8 104.518C1044.76 104.518 1055.6 109.364 1063.45 117.201C1065.84 119.583 1067.94 122.241 1069.73 125.124C1073.57 131.349 1075.89 138.619 1076.15 146.41C1076.17 146.905 1076.18 147.402 1076.18 147.901C1076.18 148.401 1076.17 148.898 1076.15 149.393C1075.89 157.228 1073.55 164.537 1069.66 170.785C1067.89 173.628 1065.8 176.251 1063.45 178.605C1055.6 186.44 1044.76 191.285 1032.8 191.285ZM1092.39 111.103C1089.52 106.46 1086.12 102.178 1082.28 98.341C1080.34 96.411 1078.3 94.596 1076.15 92.902C1064.23 83.488 1049.17 77.869 1032.8 77.869C1016.44 77.869 1001.39 83.477 989.472 92.875C987.307 94.582 985.245 96.414 983.298 98.36C979.473 102.181 976.088 106.442 973.225 111.062C967.902 119.652 964.384 129.479 963.204 140.012C963.002 141.806 962.869 143.621 962.806 145.454V150.348C963.239 162.962 967.008 174.729 973.258 184.794C976.12 189.404 979.503 193.657 983.324 197.471C985.264 199.407 987.317 201.229 989.472 202.928C1001.39 212.326 1016.44 217.933 1032.8 217.933C1049.17 217.933 1064.23 212.315 1076.15 202.901C1078.3 201.207 1080.35 199.389 1082.28 197.459C1086.09 193.656 1089.46 189.414 1092.32 184.818C1098.86 174.291 1102.69 161.901 1102.82 148.626V147.178C1102.69 133.952 1098.89 121.605 1092.39 111.103Z" fill="white"/>
<path d="M1102.84 267.376C1102.84 280.925 1098.99 293.575 1092.33 304.293C1089.47 308.888 1086.1 313.13 1082.29 316.934C1080.35 318.864 1078.31 320.682 1076.16 322.376C1064.24 331.789 1049.18 337.408 1032.8 337.408C1016.45 337.408 1001.4 331.8 989.48 322.402C987.325 320.704 985.272 318.881 983.332 316.945L989.48 310.787L1002.16 298.084C1010.01 305.917 1020.84 310.759 1032.8 310.759C1044.77 310.759 1055.6 305.914 1063.45 298.079C1065.81 295.726 1067.9 293.103 1069.67 290.26C1073.55 284.011 1075.9 276.702 1076.16 268.867C1076.18 268.372 1076.19 267.875 1076.19 267.376C1076.19 266.876 1076.18 266.379 1076.16 265.884C1075.9 258.093 1073.58 250.823 1069.73 244.599C1067.95 241.715 1065.84 239.057 1063.46 236.675L1076.16 223.946L1082.28 217.815C1086.13 221.652 1089.53 225.934 1092.4 230.578C1099.02 241.271 1102.84 253.877 1102.84 267.376Z" fill="white"/>
<path d="M276.152 197.629C263.482 210.281 245.989 218.103 226.67 218.103C207.356 218.103 189.868 210.285 177.198 197.64C165.033 185.499 157.312 168.909 156.68 150.518V145.624C157.311 127.247 165.022 110.667 177.172 98.529C189.843 85.868 207.342 78.039 226.67 78.039C245.987 78.039 263.479 85.861 276.149 98.51L257.322 117.371C249.473 109.533 238.638 104.688 226.67 104.688C214.695 104.688 203.853 109.54 196.003 117.384C188.147 125.236 183.286 136.086 183.286 148.071C183.286 160.067 188.155 170.926 196.026 178.779C203.873 186.612 214.707 191.455 226.67 191.455C238.636 191.455 249.471 186.609 257.32 178.775L276.152 197.629Z" fill="white"/>
<path d="M412.307 98.478C410.37 96.543 408.321 94.723 406.169 93.025C394.247 83.62 379.193 78.006 362.828 78.006C346.472 78.006 331.423 83.614 319.504 93.013V0H292.813V86.64L292.838 86.665V150.486C293.47 168.876 301.192 185.466 313.357 197.607C315.296 199.543 317.349 201.366 319.504 203.064V150.32C319.465 149.564 319.445 148.804 319.445 148.039C319.445 147.273 319.465 146.513 319.504 145.757C319.893 138.252 322.188 131.252 325.917 125.231C327.691 122.366 329.79 119.722 332.162 117.352C340.012 109.507 350.854 104.655 362.828 104.655C374.796 104.655 385.632 109.501 393.481 117.338C400.921 124.766 405.677 134.882 406.169 146.105C406.198 146.746 406.212 147.39 406.212 148.039C406.212 148.686 406.198 149.332 406.169 149.972V218.104H432.86V148.039C432.86 128.679 425.005 111.154 412.307 98.478Z" fill="white"/>
<path d="M70 148.131L69.839 148.231L69.962 148.107L69.985 148.084L70.021 148.118L70.087 148.186L70 148.131ZM138.733 134.632H28.729C29.808 131.317 31.275 128.176 33.078 125.265C34.853 122.399 36.951 119.756 39.323 117.384C47.173 109.54 58.015 104.688 69.99 104.688C81.958 104.688 92.793 109.534 100.642 117.371L119.468 98.511C106.799 85.861 89.307 78.04 69.99 78.04C53.633 78.04 38.585 83.647 26.666 93.046C24.5 94.753 22.439 96.584 20.492 98.53C16.667 102.351 13.282 106.612 10.419 111.232C6.042 118.295 2.886 126.193 1.247 134.632C0.552002 138.207 0.128 141.879 0 145.625V150.519C0.128 154.259 0.549996 157.924 1.243 161.493H111.257C110.168 164.845 108.682 168.017 106.854 170.956C105.085 173.798 102.997 176.422 100.64 178.775C92.791 186.61 81.956 191.455 69.99 191.455C58.026 191.455 47.193 186.613 39.345 178.78L26.666 191.483L20.518 197.641C22.458 199.577 24.511 201.4 26.666 203.098C38.585 212.496 53.633 218.104 69.99 218.104C89.309 218.104 106.801 210.281 119.472 197.63C123.282 193.826 126.656 189.584 129.513 184.988C133.918 177.901 137.092 169.97 138.737 161.493C139.536 157.378 139.975 153.134 140.018 148.796V147.348C139.975 143.003 139.535 138.754 138.733 134.632Z" fill="white"/>
<path d="M945.675 13.329C945.675 20.69 939.707 26.658 932.346 26.658C924.985 26.658 919.017 20.69 919.017 13.329C919.017 5.96802 924.985 1.90735e-05 932.346 1.90735e-05C939.707 1.90735e-05 945.675 5.96802 945.675 13.329Z" fill="white"/>
<path d="M832.986 148.131L832.825 148.231L832.948 148.107L832.972 148.084L833.007 148.118L833.073 148.186L832.986 148.131ZM901.719 134.632H791.715C792.794 131.317 794.261 128.176 796.065 125.265C797.839 122.399 799.938 119.756 802.309 117.384C810.159 109.54 821.002 104.688 832.976 104.688C844.944 104.688 855.779 109.534 863.629 117.371L882.454 98.511C869.785 85.861 852.294 78.04 832.976 78.04C816.619 78.04 801.571 83.647 789.652 93.046C787.487 94.753 785.425 96.584 783.478 98.53C779.653 102.351 776.268 106.612 773.405 111.232C769.028 118.295 765.872 126.193 764.233 134.632C763.538 138.207 763.114 141.879 762.986 145.625V150.519C763.114 154.259 763.536 157.924 764.229 161.493H874.243C873.154 164.845 871.668 168.017 869.84 170.956C868.072 173.798 865.983 176.422 863.626 178.775C855.777 186.61 844.942 191.455 832.976 191.455C821.012 191.455 810.179 186.613 802.331 178.78L789.652 191.483L783.505 197.641C785.444 199.577 787.497 201.4 789.652 203.098C801.571 212.496 816.619 218.104 832.976 218.104C852.295 218.104 869.788 210.281 882.458 197.63C886.268 193.826 889.642 189.584 892.5 184.988C896.904 177.901 900.078 169.97 901.723 161.493C902.522 157.378 902.961 153.134 903.004 148.796V147.348C902.961 143.003 902.521 138.754 901.719 134.632Z" fill="white"/>
</svg>
